<svg width="17" height="17" viewBox="0 0 17 17" fill="none" xmlns="http://www.w3.org/2000/svg">
  <path d="M3.41619 10.9619L8.50021 3.17578L13.5835 10.9619H3.41619Z" stroke="white" stroke-linecap="round" stroke-linejoin="round"/>
  <path d="M3.41619 5.78985V11.0173L8.50021 13.6307L13.5835 11.0173V5.78985L8.50021 3.17578L3.41619 5.78985Z" stroke="white" stroke-linecap="round" stroke-linejoin="round"/>
  <path d="M8.49996 3.98263C9.00035 3.98263 9.40599 3.62139 9.40599 3.17577C9.40599 2.73014 9.00035 2.3689 8.49996 2.3689C7.99957 2.3689 7.59393 2.73014 7.59393 3.17577C7.59393 3.62139 7.99957 3.98263 8.49996 3.98263Z" fill="white" stroke="white" stroke-linecap="round" stroke-linejoin="round"/>
  <path d="M3.41669 6.57358C3.91708 6.57358 4.32272 6.21233 4.32272 5.76671C4.32272 5.32109 3.91708 4.95984 3.41669 4.95984C2.9163 4.95984 2.51065 5.32109 2.51065 5.76671C2.51065 6.21233 2.9163 6.57358 3.41669 6.57358Z" fill="white" stroke="white" stroke-linecap="round" stroke-linejoin="round"/>
  <path d="M13.5832 6.57358C14.0836 6.57358 14.4893 6.21233 14.4893 5.76671C14.4893 5.32109 14.0836 4.95984 13.5832 4.95984C13.0828 4.95984 12.6772 5.32109 12.6772 5.76671C12.6772 6.21233 13.0828 6.57358 13.5832 6.57358Z" fill="white" stroke="white" stroke-linecap="round" stroke-linejoin="round"/>
  <path d="M8.51128 14.3593C9.01164 14.354 9.41244 13.9885 9.4065 13.5429C9.40056 13.0973 8.99013 12.7404 8.48978 12.7457C7.98943 12.751 7.58862 13.1165 7.59456 13.5621C7.6005 14.0077 8.01093 14.3646 8.51128 14.3593Z" fill="white" stroke="white" stroke-linecap="round" stroke-linejoin="round"/>
  <path d="M13.594 11.7684C14.0944 11.7631 14.4952 11.3976 14.4892 10.952C14.4833 10.5064 14.0729 10.1494 13.5725 10.1547C13.0722 10.16 12.6714 10.5255 12.6773 10.9711C12.6832 11.4167 13.0937 11.7736 13.594 11.7684Z" fill="white" stroke="white" stroke-linecap="round" stroke-linejoin="round"/>
  <path d="M3.42747 11.7688C3.92783 11.7636 4.32863 11.398 4.32269 10.9525C4.31675 10.5069 3.90632 10.1499 3.40597 10.1552C2.90562 10.1605 2.50481 10.526 2.51075 10.9716C2.51669 11.4172 2.92712 11.7741 3.42747 11.7688Z" fill="white" stroke="white" stroke-linecap="round" stroke-linejoin="round"/>
</svg>