<svg width="865" height="452" viewBox="0 0 865 452" fill="none" xmlns="http://www.w3.org/2000/svg">
<path opacity="0.1" d="M5 10L0.669873 2.5L9.33013 2.5L5 10Z" fill="#21FA90"/>
<path opacity="0.1" d="M5 36L0.669873 28.5L9.33013 28.5L5 36Z" fill="#21FA90"/>
<path opacity="0.1" d="M5 62L0.669873 54.5L9.33013 54.5L5 62Z" fill="#21FA90"/>
<path opacity="0.1" d="M5 88L0.669873 80.5L9.33013 80.5L5 88Z" fill="#21FA90"/>
<path opacity="0.1" d="M5 114L0.669873 106.5L9.33013 106.5L5 114Z" fill="#21FA90"/>
<path opacity="0.1" d="M5 140L0.669873 132.5L9.33013 132.5L5 140Z" fill="#21FA90"/>
<path opacity="0.1" d="M5 166L0.669873 158.5L9.33013 158.5L5 166Z" fill="#21FA90"/>
<path opacity="0.1" d="M5 192L0.669873 184.5L9.33013 184.5L5 192Z" fill="#21FA90"/>
<path opacity="0.1" d="M5 218L0.669873 210.5L9.33013 210.5L5 218Z" fill="#21FA90"/>
<path opacity="0.1" d="M5 244L0.669873 236.5L9.33013 236.5L5 244Z" fill="#21FA90"/>
<path opacity="0.1" d="M5 270L0.669873 262.5L9.33013 262.5L5 270Z" fill="#21FA90"/>
<path opacity="0.1" d="M5 296L0.669873 288.5L9.33013 288.5L5 296Z" fill="#21FA90"/>
<path opacity="0.1" d="M5 322L0.669873 314.5L9.33013 314.5L5 322Z" fill="#21FA90"/>
<path opacity="0.1" d="M5 348L0.669873 340.5L9.33013 340.5L5 348Z" fill="#21FA90"/>
<path opacity="0.1" d="M5 374L0.669873 366.5L9.33013 366.5L5 374Z" fill="#21FA90"/>
<path opacity="0.1" d="M5 400L0.669873 392.5L9.33013 392.5L5 400Z" fill="#21FA90"/>
<path opacity="0.1" d="M5 426L0.669873 418.5L9.33013 418.5L5 426Z" fill="#21FA90"/>
<path opacity="0.1" d="M5 452L0.669873 444.5L9.33013 444.5L5 452Z" fill="#21FA90"/>
<path opacity="0.1" d="M31 10L26.6699 2.5L35.3301 2.5L31 10Z" fill="#21FA90"/>
<path opacity="0.1" d="M31 36L26.6699 28.5L35.3301 28.5L31 36Z" fill="#21FA90"/>
<path opacity="0.1" d="M31 62L26.6699 54.5L35.3301 54.5L31 62Z" fill="#21FA90"/>
<path opacity="0.1" d="M31 88L26.6699 80.5L35.3301 80.5L31 88Z" fill="#21FA90"/>
<path opacity="0.1" d="M31 114L26.6699 106.5L35.3301 106.5L31 114Z" fill="#21FA90"/>
<path opacity="0.1" d="M31 140L26.6699 132.5L35.3301 132.5L31 140Z" fill="#21FA90"/>
<path opacity="0.1" d="M31 166L26.6699 158.5L35.3301 158.5L31 166Z" fill="#21FA90"/>
<path opacity="0.1" d="M31 192L26.6699 184.5L35.3301 184.5L31 192Z" fill="#21FA90"/>
<path opacity="0.1" d="M31 218L26.6699 210.5L35.3301 210.5L31 218Z" fill="#21FA90"/>
<path opacity="0.1" d="M31 244L26.6699 236.5L35.3301 236.5L31 244Z" fill="#21FA90"/>
<path opacity="0.1" d="M31 270L26.6699 262.5L35.3301 262.5L31 270Z" fill="#21FA90"/>
<path opacity="0.1" d="M31 296L26.6699 288.5L35.3301 288.5L31 296Z" fill="#21FA90"/>
<path opacity="0.1" d="M31 322L26.6699 314.5L35.3301 314.5L31 322Z" fill="#21FA90"/>
<path opacity="0.1" d="M31 348L26.6699 340.5L35.3301 340.5L31 348Z" fill="#21FA90"/>
<path opacity="0.1" d="M31 374L26.6699 366.5L35.3301 366.5L31 374Z" fill="#21FA90"/>
<path opacity="0.1" d="M31 400L26.6699 392.5L35.3301 392.5L31 400Z" fill="#21FA90"/>
<path opacity="0.1" d="M31 426L26.6699 418.5L35.3301 418.5L31 426Z" fill="#21FA90"/>
<path opacity="0.1" d="M31 452L26.6699 444.5L35.3301 444.5L31 452Z" fill="#21FA90"/>
<path opacity="0.1" d="M57 10L52.6699 2.5L61.3301 2.5L57 10Z" fill="#21FA90"/>
<path opacity="0.1" d="M57 36L52.6699 28.5L61.3301 28.5L57 36Z" fill="#21FA90"/>
<path opacity="0.1" d="M57 62L52.6699 54.5L61.3301 54.5L57 62Z" fill="#21FA90"/>
<path opacity="0.1" d="M57 88L52.6699 80.5L61.3301 80.5L57 88Z" fill="#21FA90"/>
<path opacity="0.1" d="M57 114L52.6699 106.5L61.3301 106.5L57 114Z" fill="#21FA90"/>
<path opacity="0.1" d="M57 140L52.6699 132.5L61.3301 132.5L57 140Z" fill="#21FA90"/>
<path opacity="0.1" d="M57 166L52.6699 158.5L61.3301 158.5L57 166Z" fill="#21FA90"/>
<path opacity="0.1" d="M57 192L52.6699 184.5L61.3301 184.5L57 192Z" fill="#21FA90"/>
<path opacity="0.1" d="M57 218L52.6699 210.5L61.3301 210.5L57 218Z" fill="#21FA90"/>
<path opacity="0.1" d="M57 244L52.6699 236.5L61.3301 236.5L57 244Z" fill="#21FA90"/>
<path opacity="0.1" d="M57 270L52.6699 262.5L61.3301 262.5L57 270Z" fill="#21FA90"/>
<path opacity="0.1" d="M57 296L52.6699 288.5L61.3301 288.5L57 296Z" fill="#21FA90"/>
<path opacity="0.1" d="M57 322L52.6699 314.5L61.3301 314.5L57 322Z" fill="#21FA90"/>
<path opacity="0.1" d="M57 348L52.6699 340.5L61.3301 340.5L57 348Z" fill="#21FA90"/>
<path opacity="0.1" d="M57 374L52.6699 366.5L61.3301 366.5L57 374Z" fill="#21FA90"/>
<path opacity="0.1" d="M57 400L52.6699 392.5L61.3301 392.5L57 400Z" fill="#21FA90"/>
<path opacity="0.1" d="M57 426L52.6699 418.5L61.3301 418.5L57 426Z" fill="#21FA90"/>
<path opacity="0.1" d="M57 452L52.6699 444.5L61.3301 444.5L57 452Z" fill="#21FA90"/>
<path opacity="0.1" d="M83 10L78.6699 2.5L87.3301 2.5L83 10Z" fill="#21FA90"/>
<path opacity="0.1" d="M83 36L78.6699 28.5L87.3301 28.5L83 36Z" fill="#21FA90"/>
<path opacity="0.1" d="M83 62L78.6699 54.5L87.3301 54.5L83 62Z" fill="#21FA90"/>
<path opacity="0.1" d="M83 88L78.6699 80.5L87.3301 80.5L83 88Z" fill="#21FA90"/>
<path opacity="0.1" d="M83 114L78.6699 106.5L87.3301 106.5L83 114Z" fill="#21FA90"/>
<path opacity="0.1" d="M83 140L78.6699 132.5L87.3301 132.5L83 140Z" fill="#21FA90"/>
<path opacity="0.1" d="M83 166L78.6699 158.5L87.3301 158.5L83 166Z" fill="#21FA90"/>
<path opacity="0.1" d="M83 192L78.6699 184.5L87.3301 184.5L83 192Z" fill="#21FA90"/>
<path opacity="0.1" d="M83 218L78.6699 210.5L87.3301 210.5L83 218Z" fill="#21FA90"/>
<path opacity="0.1" d="M83 244L78.6699 236.5L87.3301 236.5L83 244Z" fill="#21FA90"/>
<path opacity="0.1" d="M83 270L78.6699 262.5L87.3301 262.5L83 270Z" fill="#21FA90"/>
<path opacity="0.1" d="M83 296L78.6699 288.5L87.3301 288.5L83 296Z" fill="#21FA90"/>
<path opacity="0.1" d="M83 322L78.6699 314.5L87.3301 314.5L83 322Z" fill="#21FA90"/>
<path opacity="0.1" d="M83 348L78.6699 340.5L87.3301 340.5L83 348Z" fill="#21FA90"/>
<path opacity="0.1" d="M83 374L78.6699 366.5L87.3301 366.5L83 374Z" fill="#21FA90"/>
<path opacity="0.1" d="M83 400L78.6699 392.5L87.3301 392.5L83 400Z" fill="#21FA90"/>
<path opacity="0.1" d="M83 426L78.6699 418.5L87.3301 418.5L83 426Z" fill="#21FA90"/>
<path opacity="0.1" d="M83 452L78.6699 444.5L87.3301 444.5L83 452Z" fill="#21FA90"/>
<path opacity="0.1" d="M109 10L104.67 2.5L113.33 2.5L109 10Z" fill="#21FA90"/>
<path opacity="0.1" d="M109 36L104.67 28.5L113.33 28.5L109 36Z" fill="#21FA90"/>
<path opacity="0.1" d="M109 62L104.67 54.5L113.33 54.5L109 62Z" fill="#21FA90"/>
<path opacity="0.1" d="M109 88L104.67 80.5L113.33 80.5L109 88Z" fill="#21FA90"/>
<path opacity="0.1" d="M109 114L104.67 106.5L113.33 106.5L109 114Z" fill="#21FA90"/>
<path opacity="0.1" d="M109 140L104.67 132.5L113.33 132.5L109 140Z" fill="#21FA90"/>
<path opacity="0.1" d="M109 166L104.67 158.5L113.33 158.5L109 166Z" fill="#21FA90"/>
<path opacity="0.1" d="M109 192L104.67 184.5L113.33 184.5L109 192Z" fill="#21FA90"/>
<path opacity="0.1" d="M109 218L104.67 210.5L113.33 210.5L109 218Z" fill="#21FA90"/>
<path opacity="0.1" d="M109 244L104.67 236.5L113.33 236.5L109 244Z" fill="#21FA90"/>
<path opacity="0.1" d="M109 270L104.67 262.5L113.33 262.5L109 270Z" fill="#21FA90"/>
<path opacity="0.1" d="M109 296L104.67 288.5L113.33 288.5L109 296Z" fill="#21FA90"/>
<path opacity="0.1" d="M109 322L104.67 314.5L113.33 314.5L109 322Z" fill="#21FA90"/>
<path opacity="0.1" d="M109 348L104.67 340.5L113.33 340.5L109 348Z" fill="#21FA90"/>
<path opacity="0.1" d="M109 374L104.67 366.5L113.33 366.5L109 374Z" fill="#21FA90"/>
<path opacity="0.1" d="M109 400L104.67 392.5L113.33 392.5L109 400Z" fill="#21FA90"/>
<path opacity="0.1" d="M109 426L104.67 418.5L113.33 418.5L109 426Z" fill="#21FA90"/>
<path opacity="0.1" d="M109 452L104.67 444.5L113.33 444.5L109 452Z" fill="#21FA90"/>
<path opacity="0.1" d="M135 10L130.67 2.5L139.33 2.5L135 10Z" fill="#21FA90"/>
<path opacity="0.1" d="M135 36L130.67 28.5L139.33 28.5L135 36Z" fill="#21FA90"/>
<path opacity="0.1" d="M135 62L130.67 54.5L139.33 54.5L135 62Z" fill="#21FA90"/>
<path opacity="0.1" d="M135 88L130.67 80.5L139.33 80.5L135 88Z" fill="#21FA90"/>
<path opacity="0.1" d="M135 114L130.67 106.5L139.33 106.5L135 114Z" fill="#21FA90"/>
<path opacity="0.1" d="M135 140L130.67 132.5L139.33 132.5L135 140Z" fill="#21FA90"/>
<path opacity="0.1" d="M135 166L130.67 158.5L139.33 158.5L135 166Z" fill="#21FA90"/>
<path opacity="0.1" d="M135 192L130.67 184.5L139.33 184.5L135 192Z" fill="#21FA90"/>
<path opacity="0.1" d="M135 218L130.67 210.5L139.33 210.5L135 218Z" fill="#21FA90"/>
<path opacity="0.1" d="M135 244L130.67 236.5L139.33 236.5L135 244Z" fill="#21FA90"/>
<path opacity="0.1" d="M135 270L130.67 262.5L139.33 262.5L135 270Z" fill="#21FA90"/>
<path opacity="0.1" d="M135 296L130.67 288.5L139.33 288.5L135 296Z" fill="#21FA90"/>
<path opacity="0.1" d="M135 322L130.67 314.5L139.33 314.5L135 322Z" fill="#21FA90"/>
<path opacity="0.1" d="M135 348L130.67 340.5L139.33 340.5L135 348Z" fill="#21FA90"/>
<path opacity="0.1" d="M135 374L130.67 366.5L139.33 366.5L135 374Z" fill="#21FA90"/>
<path opacity="0.1" d="M135 400L130.67 392.5L139.33 392.5L135 400Z" fill="#21FA90"/>
<path opacity="0.1" d="M135 426L130.67 418.5L139.33 418.5L135 426Z" fill="#21FA90"/>
<path opacity="0.1" d="M135 452L130.67 444.5L139.33 444.5L135 452Z" fill="#21FA90"/>
<path opacity="0.1" d="M161 10L156.67 2.5L165.33 2.5L161 10Z" fill="#21FA90"/>
<path opacity="0.1" d="M161 36L156.67 28.5L165.33 28.5L161 36Z" fill="#21FA90"/>
<path opacity="0.1" d="M161 62L156.67 54.5L165.33 54.5L161 62Z" fill="#21FA90"/>
<path opacity="0.1" d="M161 88L156.67 80.5L165.33 80.5L161 88Z" fill="#21FA90"/>
<path opacity="0.1" d="M161 114L156.67 106.5L165.33 106.5L161 114Z" fill="#21FA90"/>
<path opacity="0.1" d="M161 140L156.67 132.5L165.33 132.5L161 140Z" fill="#21FA90"/>
<path opacity="0.1" d="M161 166L156.67 158.5L165.33 158.5L161 166Z" fill="#21FA90"/>
<path opacity="0.1" d="M161 192L156.67 184.5L165.33 184.5L161 192Z" fill="#21FA90"/>
<path opacity="0.1" d="M161 218L156.67 210.5L165.33 210.5L161 218Z" fill="#21FA90"/>
<path opacity="0.1" d="M161 244L156.67 236.5L165.33 236.5L161 244Z" fill="#21FA90"/>
<path opacity="0.1" d="M161 270L156.67 262.5L165.33 262.5L161 270Z" fill="#21FA90"/>
<path opacity="0.1" d="M161 296L156.67 288.5L165.33 288.5L161 296Z" fill="#21FA90"/>
<path opacity="0.1" d="M161 322L156.67 314.5L165.33 314.5L161 322Z" fill="#21FA90"/>
<path opacity="0.1" d="M161 348L156.67 340.5L165.33 340.5L161 348Z" fill="#21FA90"/>
<path opacity="0.1" d="M161 374L156.67 366.5L165.33 366.5L161 374Z" fill="#21FA90"/>
<path opacity="0.1" d="M161 400L156.67 392.5L165.33 392.5L161 400Z" fill="#21FA90"/>
<path opacity="0.1" d="M161 426L156.67 418.5L165.33 418.5L161 426Z" fill="#21FA90"/>
<path opacity="0.1" d="M161 452L156.67 444.5L165.33 444.5L161 452Z" fill="#21FA90"/>
<path opacity="0.1" d="M187 10L182.67 2.5L191.33 2.5L187 10Z" fill="#21FA90"/>
<path opacity="0.1" d="M187 36L182.67 28.5L191.33 28.5L187 36Z" fill="#21FA90"/>
<path opacity="0.1" d="M187 62L182.67 54.5L191.33 54.5L187 62Z" fill="#21FA90"/>
<path opacity="0.1" d="M187 88L182.67 80.5L191.33 80.5L187 88Z" fill="#21FA90"/>
<path opacity="0.1" d="M187 114L182.67 106.5L191.33 106.5L187 114Z" fill="#21FA90"/>
<path opacity="0.1" d="M187 140L182.67 132.5L191.33 132.5L187 140Z" fill="#21FA90"/>
<path opacity="0.1" d="M187 166L182.67 158.5L191.33 158.5L187 166Z" fill="#21FA90"/>
<path opacity="0.1" d="M187 192L182.67 184.5L191.33 184.5L187 192Z" fill="#21FA90"/>
<path opacity="0.1" d="M187 218L182.67 210.5L191.33 210.5L187 218Z" fill="#21FA90"/>
<path opacity="0.1" d="M187 244L182.67 236.5L191.33 236.5L187 244Z" fill="#21FA90"/>
<path opacity="0.1" d="M187 270L182.67 262.5L191.33 262.5L187 270Z" fill="#21FA90"/>
<path opacity="0.1" d="M187 296L182.67 288.5L191.33 288.5L187 296Z" fill="#21FA90"/>
<path opacity="0.1" d="M187 322L182.67 314.5L191.33 314.5L187 322Z" fill="#21FA90"/>
<path opacity="0.1" d="M187 348L182.67 340.5L191.33 340.5L187 348Z" fill="#21FA90"/>
<path opacity="0.1" d="M187 374L182.67 366.5L191.33 366.5L187 374Z" fill="#21FA90"/>
<path opacity="0.1" d="M187 400L182.67 392.5L191.33 392.5L187 400Z" fill="#21FA90"/>
<path opacity="0.1" d="M187 426L182.67 418.5L191.33 418.5L187 426Z" fill="#21FA90"/>
<path opacity="0.1" d="M187 452L182.67 444.5L191.33 444.5L187 452Z" fill="#21FA90"/>
<path opacity="0.1" d="M213 10L208.67 2.5L217.33 2.5L213 10Z" fill="#21FA90"/>
<path opacity="0.1" d="M213 36L208.67 28.5L217.33 28.5L213 36Z" fill="#21FA90"/>
<path opacity="0.1" d="M213 62L208.67 54.5L217.33 54.5L213 62Z" fill="#21FA90"/>
<path opacity="0.1" d="M213 88L208.67 80.5L217.33 80.5L213 88Z" fill="#21FA90"/>
<path opacity="0.1" d="M213 114L208.67 106.5L217.33 106.5L213 114Z" fill="#21FA90"/>
<path opacity="0.1" d="M213 140L208.67 132.5L217.33 132.5L213 140Z" fill="#21FA90"/>
<path opacity="0.1" d="M213 166L208.67 158.5L217.33 158.5L213 166Z" fill="#21FA90"/>
<path opacity="0.1" d="M213 192L208.67 184.5L217.33 184.5L213 192Z" fill="#21FA90"/>
<path opacity="0.1" d="M213 218L208.67 210.5L217.33 210.5L213 218Z" fill="#21FA90"/>
<path opacity="0.1" d="M213 244L208.67 236.5L217.33 236.5L213 244Z" fill="#21FA90"/>
<path opacity="0.1" d="M213 270L208.67 262.5L217.33 262.5L213 270Z" fill="#21FA90"/>
<path opacity="0.1" d="M213 296L208.67 288.5L217.33 288.5L213 296Z" fill="#21FA90"/>
<path opacity="0.1" d="M213 322L208.67 314.5L217.33 314.5L213 322Z" fill="#21FA90"/>
<path opacity="0.1" d="M213 348L208.67 340.5L217.33 340.5L213 348Z" fill="#21FA90"/>
<path opacity="0.1" d="M213 374L208.67 366.5L217.33 366.5L213 374Z" fill="#21FA90"/>
<path opacity="0.1" d="M213 400L208.67 392.5L217.33 392.5L213 400Z" fill="#21FA90"/>
<path opacity="0.1" d="M213 426L208.67 418.5L217.33 418.5L213 426Z" fill="#21FA90"/>
<path opacity="0.1" d="M213 452L208.67 444.5L217.33 444.5L213 452Z" fill="#21FA90"/>
<path opacity="0.1" d="M239 10L234.67 2.5L243.33 2.5L239 10Z" fill="#21FA90"/>
<path opacity="0.1" d="M239 36L234.67 28.5L243.33 28.5L239 36Z" fill="#21FA90"/>
<path opacity="0.1" d="M239 62L234.67 54.5L243.33 54.5L239 62Z" fill="#21FA90"/>
<path opacity="0.1" d="M239 88L234.67 80.5L243.33 80.5L239 88Z" fill="#21FA90"/>
<path opacity="0.1" d="M239 114L234.67 106.5L243.33 106.5L239 114Z" fill="#21FA90"/>
<path opacity="0.1" d="M239 140L234.67 132.5L243.33 132.5L239 140Z" fill="#21FA90"/>
<path opacity="0.1" d="M239 166L234.67 158.5L243.33 158.5L239 166Z" fill="#21FA90"/>
<path opacity="0.1" d="M239 192L234.67 184.5L243.33 184.5L239 192Z" fill="#21FA90"/>
<path opacity="0.1" d="M239 218L234.67 210.5L243.33 210.5L239 218Z" fill="#21FA90"/>
<path opacity="0.1" d="M239 244L234.67 236.5L243.33 236.5L239 244Z" fill="#21FA90"/>
<path opacity="0.1" d="M239 270L234.67 262.5L243.33 262.5L239 270Z" fill="#21FA90"/>
<path opacity="0.1" d="M239 296L234.67 288.5L243.33 288.5L239 296Z" fill="#21FA90"/>
<path opacity="0.1" d="M239 322L234.67 314.5L243.33 314.5L239 322Z" fill="#21FA90"/>
<path opacity="0.1" d="M239 348L234.67 340.5L243.33 340.5L239 348Z" fill="#21FA90"/>
<path opacity="0.1" d="M239 374L234.67 366.5L243.33 366.5L239 374Z" fill="#21FA90"/>
<path opacity="0.1" d="M239 400L234.67 392.5L243.33 392.5L239 400Z" fill="#21FA90"/>
<path opacity="0.1" d="M239 426L234.67 418.5L243.33 418.5L239 426Z" fill="#21FA90"/>
<path opacity="0.1" d="M239 452L234.67 444.5L243.33 444.5L239 452Z" fill="#21FA90"/>
<path opacity="0.1" d="M265 10L260.67 2.5L269.33 2.5L265 10Z" fill="#21FA90"/>
<path opacity="0.1" d="M265 36L260.67 28.5L269.33 28.5L265 36Z" fill="#21FA90"/>
<path opacity="0.1" d="M265 62L260.67 54.5L269.33 54.5L265 62Z" fill="#21FA90"/>
<path opacity="0.1" d="M265 88L260.67 80.5L269.33 80.5L265 88Z" fill="#21FA90"/>
<path opacity="0.1" d="M265 114L260.67 106.5L269.33 106.5L265 114Z" fill="#21FA90"/>
<path opacity="0.1" d="M265 140L260.67 132.5L269.33 132.5L265 140Z" fill="#21FA90"/>
<path opacity="0.1" d="M265 166L260.67 158.5L269.33 158.5L265 166Z" fill="#21FA90"/>
<path opacity="0.1" d="M265 192L260.67 184.5L269.33 184.5L265 192Z" fill="#21FA90"/>
<path opacity="0.1" d="M265 218L260.67 210.5L269.33 210.5L265 218Z" fill="#21FA90"/>
<path opacity="0.1" d="M265 244L260.67 236.5L269.33 236.5L265 244Z" fill="#21FA90"/>
<path opacity="0.1" d="M265 270L260.67 262.5L269.33 262.5L265 270Z" fill="#21FA90"/>
<path opacity="0.1" d="M265 296L260.67 288.5L269.33 288.5L265 296Z" fill="#21FA90"/>
<path opacity="0.1" d="M265 322L260.67 314.5L269.33 314.5L265 322Z" fill="#21FA90"/>
<path opacity="0.1" d="M265 348L260.67 340.5L269.33 340.5L265 348Z" fill="#21FA90"/>
<path opacity="0.1" d="M265 374L260.67 366.5L269.33 366.5L265 374Z" fill="#21FA90"/>
<path opacity="0.1" d="M265 400L260.67 392.5L269.33 392.5L265 400Z" fill="#21FA90"/>
<path opacity="0.1" d="M265 426L260.67 418.5L269.33 418.5L265 426Z" fill="#21FA90"/>
<path opacity="0.1" d="M265 452L260.67 444.5L269.33 444.5L265 452Z" fill="#21FA90"/>
<path opacity="0.1" d="M291 10L286.67 2.5L295.33 2.5L291 10Z" fill="#21FA90"/>
<path opacity="0.1" d="M291 36L286.67 28.5L295.33 28.5L291 36Z" fill="#21FA90"/>
<path opacity="0.1" d="M291 62L286.67 54.5L295.33 54.5L291 62Z" fill="#21FA90"/>
<path opacity="0.1" d="M291 88L286.67 80.5L295.33 80.5L291 88Z" fill="#21FA90"/>
<path opacity="0.1" d="M291 114L286.67 106.5L295.33 106.5L291 114Z" fill="#21FA90"/>
<path opacity="0.1" d="M291 140L286.67 132.5L295.33 132.5L291 140Z" fill="#21FA90"/>
<path opacity="0.1" d="M291 166L286.67 158.5L295.33 158.5L291 166Z" fill="#21FA90"/>
<path opacity="0.1" d="M291 192L286.67 184.5L295.33 184.5L291 192Z" fill="#21FA90"/>
<path opacity="0.1" d="M291 218L286.67 210.5L295.33 210.5L291 218Z" fill="#21FA90"/>
<path opacity="0.1" d="M291 244L286.67 236.5L295.33 236.5L291 244Z" fill="#21FA90"/>
<path opacity="0.1" d="M291 270L286.67 262.5L295.33 262.5L291 270Z" fill="#21FA90"/>
<path opacity="0.1" d="M291 296L286.67 288.5L295.33 288.5L291 296Z" fill="#21FA90"/>
<path opacity="0.1" d="M291 322L286.67 314.5L295.33 314.5L291 322Z" fill="#21FA90"/>
<path opacity="0.1" d="M291 348L286.67 340.5L295.33 340.5L291 348Z" fill="#21FA90"/>
<path opacity="0.1" d="M291 374L286.67 366.5L295.33 366.5L291 374Z" fill="#21FA90"/>
<path opacity="0.1" d="M291 400L286.67 392.5L295.33 392.5L291 400Z" fill="#21FA90"/>
<path opacity="0.1" d="M291 426L286.67 418.5L295.33 418.5L291 426Z" fill="#21FA90"/>
<path opacity="0.1" d="M291 452L286.67 444.5L295.33 444.5L291 452Z" fill="#21FA90"/>
<path opacity="0.1" d="M317 10L312.67 2.5L321.33 2.5L317 10Z" fill="#21FA90"/>
<path opacity="0.1" d="M317 36L312.67 28.5L321.33 28.5L317 36Z" fill="#21FA90"/>
<path opacity="0.1" d="M317 62L312.67 54.5L321.33 54.5L317 62Z" fill="#21FA90"/>
<path opacity="0.1" d="M317 88L312.67 80.5L321.33 80.5L317 88Z" fill="#21FA90"/>
<path opacity="0.1" d="M317 114L312.67 106.5L321.33 106.5L317 114Z" fill="#21FA90"/>
<path opacity="0.1" d="M317 140L312.67 132.5L321.33 132.5L317 140Z" fill="#21FA90"/>
<path opacity="0.1" d="M317 166L312.67 158.5L321.33 158.5L317 166Z" fill="#21FA90"/>
<path opacity="0.1" d="M317 192L312.67 184.5L321.33 184.5L317 192Z" fill="#21FA90"/>
<path opacity="0.1" d="M317 218L312.67 210.5L321.33 210.5L317 218Z" fill="#21FA90"/>
<path opacity="0.1" d="M317 244L312.67 236.5L321.33 236.5L317 244Z" fill="#21FA90"/>
<path opacity="0.1" d="M317 270L312.67 262.5L321.33 262.5L317 270Z" fill="#21FA90"/>
<path opacity="0.1" d="M317 296L312.67 288.5L321.33 288.5L317 296Z" fill="#21FA90"/>
<path opacity="0.1" d="M317 322L312.67 314.5L321.33 314.5L317 322Z" fill="#21FA90"/>
<path opacity="0.1" d="M317 348L312.67 340.5L321.33 340.5L317 348Z" fill="#21FA90"/>
<path opacity="0.1" d="M317 374L312.67 366.5L321.33 366.5L317 374Z" fill="#21FA90"/>
<path opacity="0.1" d="M317 400L312.67 392.5L321.33 392.5L317 400Z" fill="#21FA90"/>
<path opacity="0.1" d="M317 426L312.67 418.5L321.33 418.5L317 426Z" fill="#21FA90"/>
<path opacity="0.1" d="M317 452L312.67 444.5L321.33 444.5L317 452Z" fill="#21FA90"/>
<path opacity="0.1" d="M343 10L338.67 2.5L347.33 2.5L343 10Z" fill="#21FA90"/>
<path opacity="0.1" d="M343 36L338.67 28.5L347.33 28.5L343 36Z" fill="#21FA90"/>
<path opacity="0.1" d="M343 62L338.67 54.5L347.33 54.5L343 62Z" fill="#21FA90"/>
<path opacity="0.1" d="M343 88L338.67 80.5L347.33 80.5L343 88Z" fill="#21FA90"/>
<path opacity="0.1" d="M343 114L338.67 106.5L347.33 106.5L343 114Z" fill="#21FA90"/>
<path opacity="0.1" d="M343 140L338.67 132.5L347.33 132.5L343 140Z" fill="#21FA90"/>
<path opacity="0.1" d="M343 166L338.67 158.5L347.33 158.5L343 166Z" fill="#21FA90"/>
<path opacity="0.1" d="M343 192L338.67 184.5L347.33 184.5L343 192Z" fill="#21FA90"/>
<path opacity="0.1" d="M343 218L338.67 210.5L347.33 210.5L343 218Z" fill="#21FA90"/>
<path opacity="0.1" d="M343 244L338.67 236.5L347.33 236.5L343 244Z" fill="#21FA90"/>
<path opacity="0.1" d="M343 270L338.67 262.5L347.33 262.5L343 270Z" fill="#21FA90"/>
<path opacity="0.1" d="M343 296L338.67 288.5L347.33 288.5L343 296Z" fill="#21FA90"/>
<path opacity="0.1" d="M343 322L338.67 314.5L347.33 314.5L343 322Z" fill="#21FA90"/>
<path opacity="0.1" d="M343 348L338.67 340.5L347.33 340.5L343 348Z" fill="#21FA90"/>
<path opacity="0.1" d="M343 374L338.67 366.5L347.33 366.5L343 374Z" fill="#21FA90"/>
<path opacity="0.1" d="M343 400L338.67 392.5L347.33 392.5L343 400Z" fill="#21FA90"/>
<path opacity="0.1" d="M343 426L338.67 418.5L347.33 418.5L343 426Z" fill="#21FA90"/>
<path opacity="0.1" d="M343 452L338.67 444.5L347.33 444.5L343 452Z" fill="#21FA90"/>
<path opacity="0.1" d="M369 10L364.67 2.5L373.33 2.5L369 10Z" fill="#21FA90"/>
<path opacity="0.1" d="M369 36L364.67 28.5L373.33 28.5L369 36Z" fill="#21FA90"/>
<path opacity="0.1" d="M369 62L364.67 54.5L373.33 54.5L369 62Z" fill="#21FA90"/>
<path opacity="0.1" d="M369 88L364.67 80.5L373.33 80.5L369 88Z" fill="#21FA90"/>
<path opacity="0.1" d="M369 114L364.67 106.5L373.33 106.5L369 114Z" fill="#21FA90"/>
<path opacity="0.1" d="M369 140L364.67 132.5L373.33 132.5L369 140Z" fill="#21FA90"/>
<path opacity="0.1" d="M369 166L364.67 158.5L373.33 158.5L369 166Z" fill="#21FA90"/>
<path opacity="0.1" d="M369 192L364.67 184.5L373.33 184.5L369 192Z" fill="#21FA90"/>
<path opacity="0.1" d="M369 218L364.67 210.5L373.33 210.5L369 218Z" fill="#21FA90"/>
<path opacity="0.1" d="M369 244L364.67 236.5L373.33 236.5L369 244Z" fill="#21FA90"/>
<path opacity="0.1" d="M369 270L364.67 262.5L373.33 262.5L369 270Z" fill="#21FA90"/>
<path opacity="0.1" d="M369 296L364.67 288.5L373.33 288.5L369 296Z" fill="#21FA90"/>
<path opacity="0.1" d="M369 322L364.67 314.5L373.33 314.5L369 322Z" fill="#21FA90"/>
<path opacity="0.1" d="M369 348L364.67 340.5L373.33 340.5L369 348Z" fill="#21FA90"/>
<path opacity="0.1" d="M369 374L364.67 366.5L373.33 366.5L369 374Z" fill="#21FA90"/>
<path opacity="0.1" d="M369 400L364.67 392.5L373.33 392.5L369 400Z" fill="#21FA90"/>
<path opacity="0.1" d="M369 426L364.67 418.5L373.33 418.5L369 426Z" fill="#21FA90"/>
<path opacity="0.1" d="M369 452L364.67 444.5L373.33 444.5L369 452Z" fill="#21FA90"/>
<path opacity="0.1" d="M395 10L390.67 2.5L399.33 2.5L395 10Z" fill="#21FA90"/>
<path opacity="0.1" d="M395 36L390.67 28.5L399.33 28.5L395 36Z" fill="#21FA90"/>
<path opacity="0.1" d="M395 62L390.67 54.5L399.33 54.5L395 62Z" fill="#21FA90"/>
<path opacity="0.1" d="M395 88L390.67 80.5L399.33 80.5L395 88Z" fill="#21FA90"/>
<path opacity="0.1" d="M395 114L390.67 106.5L399.33 106.5L395 114Z" fill="#21FA90"/>
<path opacity="0.1" d="M395 140L390.67 132.5L399.33 132.5L395 140Z" fill="#21FA90"/>
<path opacity="0.1" d="M395 166L390.67 158.5L399.33 158.5L395 166Z" fill="#21FA90"/>
<path opacity="0.1" d="M395 192L390.67 184.5L399.33 184.5L395 192Z" fill="#21FA90"/>
<path opacity="0.1" d="M395 218L390.67 210.5L399.33 210.5L395 218Z" fill="#21FA90"/>
<path opacity="0.1" d="M395 244L390.67 236.5L399.33 236.5L395 244Z" fill="#21FA90"/>
<path opacity="0.1" d="M395 270L390.67 262.5L399.33 262.5L395 270Z" fill="#21FA90"/>
<path opacity="0.1" d="M395 296L390.67 288.5L399.33 288.5L395 296Z" fill="#21FA90"/>
<path opacity="0.1" d="M395 322L390.67 314.5L399.33 314.5L395 322Z" fill="#21FA90"/>
<path opacity="0.1" d="M395 348L390.67 340.5L399.33 340.5L395 348Z" fill="#21FA90"/>
<path opacity="0.1" d="M395 374L390.67 366.5L399.33 366.5L395 374Z" fill="#21FA90"/>
<path opacity="0.1" d="M395 400L390.67 392.5L399.33 392.5L395 400Z" fill="#21FA90"/>
<path opacity="0.1" d="M395 426L390.67 418.5L399.33 418.5L395 426Z" fill="#21FA90"/>
<path opacity="0.1" d="M395 452L390.67 444.5L399.33 444.5L395 452Z" fill="#21FA90"/>
<path opacity="0.1" d="M421 10L416.67 2.5L425.33 2.5L421 10Z" fill="#21FA90"/>
<path opacity="0.1" d="M421 36L416.67 28.5L425.33 28.5L421 36Z" fill="#21FA90"/>
<path opacity="0.1" d="M421 62L416.67 54.5L425.33 54.5L421 62Z" fill="#21FA90"/>
<path opacity="0.1" d="M421 88L416.67 80.5L425.33 80.5L421 88Z" fill="#21FA90"/>
<path opacity="0.1" d="M421 114L416.67 106.5L425.33 106.5L421 114Z" fill="#21FA90"/>
<path opacity="0.1" d="M421 140L416.67 132.5L425.33 132.5L421 140Z" fill="#21FA90"/>
<path opacity="0.1" d="M421 166L416.67 158.5L425.33 158.5L421 166Z" fill="#21FA90"/>
<path opacity="0.1" d="M421 192L416.67 184.5L425.33 184.5L421 192Z" fill="#21FA90"/>
<path opacity="0.1" d="M421 218L416.67 210.5L425.33 210.5L421 218Z" fill="#21FA90"/>
<path opacity="0.1" d="M421 244L416.67 236.5L425.33 236.5L421 244Z" fill="#21FA90"/>
<path opacity="0.1" d="M421 270L416.67 262.5L425.33 262.5L421 270Z" fill="#21FA90"/>
<path opacity="0.1" d="M421 296L416.67 288.5L425.33 288.5L421 296Z" fill="#21FA90"/>
<path opacity="0.1" d="M421 322L416.67 314.5L425.33 314.5L421 322Z" fill="#21FA90"/>
<path opacity="0.1" d="M421 348L416.67 340.5L425.33 340.5L421 348Z" fill="#21FA90"/>
<path opacity="0.1" d="M421 374L416.67 366.5L425.33 366.5L421 374Z" fill="#21FA90"/>
<path opacity="0.1" d="M421 400L416.67 392.5L425.33 392.5L421 400Z" fill="#21FA90"/>
<path opacity="0.1" d="M421 426L416.67 418.5L425.33 418.5L421 426Z" fill="#21FA90"/>
<path opacity="0.1" d="M421 452L416.67 444.5L425.33 444.5L421 452Z" fill="#21FA90"/>
<path opacity="0.1" d="M447 10L442.67 2.5L451.33 2.5L447 10Z" fill="#21FA90"/>
<path opacity="0.1" d="M447 36L442.67 28.5L451.33 28.5L447 36Z" fill="#21FA90"/>
<path opacity="0.1" d="M447 62L442.67 54.5L451.33 54.5L447 62Z" fill="#21FA90"/>
<path opacity="0.1" d="M447 88L442.67 80.5L451.33 80.5L447 88Z" fill="#21FA90"/>
<path opacity="0.1" d="M447 114L442.67 106.5L451.33 106.5L447 114Z" fill="#21FA90"/>
<path opacity="0.1" d="M447 140L442.67 132.5L451.33 132.5L447 140Z" fill="#21FA90"/>
<path opacity="0.1" d="M447 166L442.67 158.5L451.33 158.5L447 166Z" fill="#21FA90"/>
<path opacity="0.1" d="M447 192L442.67 184.5L451.33 184.5L447 192Z" fill="#21FA90"/>
<path opacity="0.1" d="M447 218L442.67 210.5L451.33 210.5L447 218Z" fill="#21FA90"/>
<path opacity="0.1" d="M447 244L442.67 236.5L451.33 236.5L447 244Z" fill="#21FA90"/>
<path opacity="0.1" d="M447 270L442.67 262.5L451.33 262.5L447 270Z" fill="#21FA90"/>
<path opacity="0.1" d="M447 296L442.67 288.5L451.33 288.5L447 296Z" fill="#21FA90"/>
<path opacity="0.1" d="M447 322L442.67 314.5L451.33 314.5L447 322Z" fill="#21FA90"/>
<path opacity="0.1" d="M447 348L442.67 340.5L451.33 340.5L447 348Z" fill="#21FA90"/>
<path opacity="0.1" d="M447 374L442.67 366.5L451.33 366.5L447 374Z" fill="#21FA90"/>
<path opacity="0.1" d="M447 400L442.67 392.5L451.33 392.5L447 400Z" fill="#21FA90"/>
<path opacity="0.1" d="M447 426L442.67 418.5L451.33 418.5L447 426Z" fill="#21FA90"/>
<path opacity="0.1" d="M447 452L442.67 444.5L451.33 444.5L447 452Z" fill="#21FA90"/>
<path opacity="0.1" d="M473 10L468.67 2.5L477.33 2.5L473 10Z" fill="#21FA90"/>
<path opacity="0.1" d="M473 36L468.67 28.5L477.33 28.5L473 36Z" fill="#21FA90"/>
<path opacity="0.1" d="M473 62L468.67 54.5L477.33 54.5L473 62Z" fill="#21FA90"/>
<path opacity="0.1" d="M473 88L468.67 80.5L477.33 80.5L473 88Z" fill="#21FA90"/>
<path opacity="0.1" d="M473 114L468.67 106.5L477.33 106.5L473 114Z" fill="#21FA90"/>
<path opacity="0.1" d="M473 140L468.67 132.5L477.33 132.5L473 140Z" fill="#21FA90"/>
<path opacity="0.1" d="M473 166L468.67 158.5L477.33 158.5L473 166Z" fill="#21FA90"/>
<path opacity="0.1" d="M473 192L468.67 184.5L477.33 184.5L473 192Z" fill="#21FA90"/>
<path opacity="0.1" d="M473 218L468.67 210.5L477.33 210.5L473 218Z" fill="#21FA90"/>
<path opacity="0.1" d="M473 244L468.67 236.5L477.33 236.5L473 244Z" fill="#21FA90"/>
<path opacity="0.1" d="M473 270L468.67 262.5L477.33 262.5L473 270Z" fill="#21FA90"/>
<path opacity="0.1" d="M473 296L468.67 288.5L477.33 288.5L473 296Z" fill="#21FA90"/>
<path opacity="0.1" d="M473 322L468.67 314.5L477.33 314.5L473 322Z" fill="#21FA90"/>
<path opacity="0.1" d="M473 348L468.67 340.5L477.33 340.5L473 348Z" fill="#21FA90"/>
<path opacity="0.1" d="M473 374L468.67 366.5L477.33 366.5L473 374Z" fill="#21FA90"/>
<path opacity="0.1" d="M473 400L468.67 392.5L477.33 392.5L473 400Z" fill="#21FA90"/>
<path opacity="0.1" d="M473 426L468.67 418.5L477.33 418.5L473 426Z" fill="#21FA90"/>
<path opacity="0.1" d="M473 452L468.67 444.5L477.33 444.5L473 452Z" fill="#21FA90"/>
<path opacity="0.1" d="M499 10L494.67 2.5L503.33 2.5L499 10Z" fill="#21FA90"/>
<path opacity="0.1" d="M499 36L494.67 28.5L503.33 28.5L499 36Z" fill="#21FA90"/>
<path opacity="0.1" d="M499 62L494.67 54.5L503.33 54.5L499 62Z" fill="#21FA90"/>
<path opacity="0.1" d="M499 88L494.67 80.5L503.33 80.5L499 88Z" fill="#21FA90"/>
<path opacity="0.1" d="M499 114L494.67 106.5L503.33 106.5L499 114Z" fill="#21FA90"/>
<path opacity="0.1" d="M499 140L494.67 132.5L503.33 132.5L499 140Z" fill="#21FA90"/>
<path opacity="0.1" d="M499 166L494.67 158.5L503.33 158.5L499 166Z" fill="#21FA90"/>
<path opacity="0.1" d="M499 192L494.67 184.5L503.33 184.5L499 192Z" fill="#21FA90"/>
<path opacity="0.1" d="M499 218L494.67 210.5L503.33 210.5L499 218Z" fill="#21FA90"/>
<path opacity="0.1" d="M499 244L494.67 236.5L503.33 236.5L499 244Z" fill="#21FA90"/>
<path opacity="0.1" d="M499 270L494.67 262.5L503.33 262.5L499 270Z" fill="#21FA90"/>
<path opacity="0.1" d="M499 296L494.67 288.5L503.33 288.5L499 296Z" fill="#21FA90"/>
<path opacity="0.1" d="M499 322L494.67 314.5L503.33 314.5L499 322Z" fill="#21FA90"/>
<path opacity="0.1" d="M499 348L494.67 340.5L503.33 340.5L499 348Z" fill="#21FA90"/>
<path opacity="0.1" d="M499 374L494.67 366.5L503.33 366.5L499 374Z" fill="#21FA90"/>
<path opacity="0.1" d="M499 400L494.67 392.5L503.33 392.5L499 400Z" fill="#21FA90"/>
<path opacity="0.1" d="M499 426L494.67 418.5L503.33 418.5L499 426Z" fill="#21FA90"/>
<path opacity="0.1" d="M499 452L494.67 444.5L503.33 444.5L499 452Z" fill="#21FA90"/>
<path opacity="0.1" d="M525 10L520.67 2.5L529.33 2.5L525 10Z" fill="#21FA90"/>
<path opacity="0.1" d="M525 36L520.67 28.5L529.33 28.5L525 36Z" fill="#21FA90"/>
<path opacity="0.1" d="M525 62L520.67 54.5L529.33 54.5L525 62Z" fill="#21FA90"/>
<path opacity="0.1" d="M525 88L520.67 80.5L529.33 80.5L525 88Z" fill="#21FA90"/>
<path opacity="0.1" d="M525 114L520.67 106.5L529.33 106.5L525 114Z" fill="#21FA90"/>
<path opacity="0.1" d="M525 140L520.67 132.5L529.33 132.5L525 140Z" fill="#21FA90"/>
<path opacity="0.1" d="M525 166L520.67 158.5L529.33 158.5L525 166Z" fill="#21FA90"/>
<path opacity="0.1" d="M525 192L520.67 184.5L529.33 184.5L525 192Z" fill="#21FA90"/>
<path opacity="0.1" d="M525 218L520.67 210.5L529.33 210.5L525 218Z" fill="#21FA90"/>
<path opacity="0.1" d="M525 244L520.67 236.5L529.33 236.5L525 244Z" fill="#21FA90"/>
<path opacity="0.1" d="M525 270L520.67 262.5L529.33 262.5L525 270Z" fill="#21FA90"/>
<path opacity="0.1" d="M525 296L520.67 288.5L529.33 288.5L525 296Z" fill="#21FA90"/>
<path opacity="0.1" d="M525 322L520.67 314.5L529.33 314.5L525 322Z" fill="#21FA90"/>
<path opacity="0.1" d="M525 348L520.67 340.5L529.33 340.5L525 348Z" fill="#21FA90"/>
<path opacity="0.1" d="M525 374L520.67 366.5L529.33 366.5L525 374Z" fill="#21FA90"/>
<path opacity="0.1" d="M525 400L520.67 392.5L529.33 392.5L525 400Z" fill="#21FA90"/>
<path opacity="0.1" d="M525 426L520.67 418.5L529.33 418.5L525 426Z" fill="#21FA90"/>
<path opacity="0.1" d="M525 452L520.67 444.5L529.33 444.5L525 452Z" fill="#21FA90"/>
<path opacity="0.1" d="M551 10L546.67 2.5L555.33 2.5L551 10Z" fill="#21FA90"/>
<path opacity="0.1" d="M551 36L546.67 28.5L555.33 28.5L551 36Z" fill="#21FA90"/>
<path opacity="0.1" d="M551 62L546.67 54.5L555.33 54.5L551 62Z" fill="#21FA90"/>
<path opacity="0.1" d="M551 88L546.67 80.5L555.33 80.5L551 88Z" fill="#21FA90"/>
<path opacity="0.1" d="M551 114L546.67 106.5L555.33 106.5L551 114Z" fill="#21FA90"/>
<path opacity="0.1" d="M551 140L546.67 132.5L555.33 132.5L551 140Z" fill="#21FA90"/>
<path opacity="0.1" d="M551 166L546.67 158.5L555.33 158.5L551 166Z" fill="#21FA90"/>
<path opacity="0.1" d="M551 192L546.67 184.5L555.33 184.5L551 192Z" fill="#21FA90"/>
<path opacity="0.1" d="M551 218L546.67 210.5L555.33 210.5L551 218Z" fill="#21FA90"/>
<path opacity="0.1" d="M551 244L546.67 236.5L555.33 236.5L551 244Z" fill="#21FA90"/>
<path opacity="0.1" d="M551 270L546.67 262.5L555.33 262.5L551 270Z" fill="#21FA90"/>
<path opacity="0.1" d="M551 296L546.67 288.5L555.33 288.5L551 296Z" fill="#21FA90"/>
<path opacity="0.1" d="M551 322L546.67 314.5L555.33 314.5L551 322Z" fill="#21FA90"/>
<path opacity="0.1" d="M551 348L546.67 340.5L555.33 340.5L551 348Z" fill="#21FA90"/>
<path opacity="0.1" d="M551 374L546.67 366.5L555.33 366.5L551 374Z" fill="#21FA90"/>
<path opacity="0.1" d="M551 400L546.67 392.5L555.33 392.5L551 400Z" fill="#21FA90"/>
<path opacity="0.1" d="M551 426L546.67 418.5L555.33 418.5L551 426Z" fill="#21FA90"/>
<path opacity="0.1" d="M551 452L546.67 444.5L555.33 444.5L551 452Z" fill="#21FA90"/>
<path opacity="0.1" d="M577 10L572.67 2.5L581.33 2.5L577 10Z" fill="#21FA90"/>
<path opacity="0.1" d="M577 36L572.67 28.5L581.33 28.5L577 36Z" fill="#21FA90"/>
<path opacity="0.1" d="M577 62L572.67 54.5L581.33 54.5L577 62Z" fill="#21FA90"/>
<path opacity="0.1" d="M577 88L572.67 80.5L581.33 80.5L577 88Z" fill="#21FA90"/>
<path opacity="0.1" d="M577 114L572.67 106.5L581.33 106.5L577 114Z" fill="#21FA90"/>
<path opacity="0.1" d="M577 140L572.67 132.5L581.33 132.5L577 140Z" fill="#21FA90"/>
<path opacity="0.1" d="M577 166L572.67 158.5L581.33 158.5L577 166Z" fill="#21FA90"/>
<path opacity="0.1" d="M577 192L572.67 184.5L581.33 184.5L577 192Z" fill="#21FA90"/>
<path opacity="0.1" d="M577 218L572.67 210.5L581.33 210.5L577 218Z" fill="#21FA90"/>
<path opacity="0.1" d="M577 244L572.67 236.5L581.33 236.5L577 244Z" fill="#21FA90"/>
<path opacity="0.1" d="M577 270L572.67 262.5L581.33 262.5L577 270Z" fill="#21FA90"/>
<path opacity="0.1" d="M577 296L572.67 288.5L581.33 288.5L577 296Z" fill="#21FA90"/>
<path opacity="0.1" d="M577 322L572.67 314.5L581.33 314.5L577 322Z" fill="#21FA90"/>
<path opacity="0.1" d="M577 348L572.67 340.5L581.33 340.5L577 348Z" fill="#21FA90"/>
<path opacity="0.1" d="M577 374L572.67 366.5L581.33 366.5L577 374Z" fill="#21FA90"/>
<path opacity="0.1" d="M577 400L572.67 392.5L581.33 392.5L577 400Z" fill="#21FA90"/>
<path opacity="0.1" d="M577 426L572.67 418.5L581.33 418.5L577 426Z" fill="#21FA90"/>
<path opacity="0.1" d="M577 452L572.67 444.5L581.33 444.5L577 452Z" fill="#21FA90"/>
<path opacity="0.1" d="M603 10L598.67 2.5L607.33 2.5L603 10Z" fill="#21FA90"/>
<path opacity="0.1" d="M603 36L598.67 28.5L607.33 28.5L603 36Z" fill="#21FA90"/>
<path opacity="0.1" d="M603 62L598.67 54.5L607.33 54.5L603 62Z" fill="#21FA90"/>
<path opacity="0.1" d="M603 88L598.67 80.5L607.33 80.5L603 88Z" fill="#21FA90"/>
<path opacity="0.1" d="M603 114L598.67 106.5L607.33 106.5L603 114Z" fill="#21FA90"/>
<path opacity="0.1" d="M603 140L598.67 132.5L607.33 132.5L603 140Z" fill="#21FA90"/>
<path opacity="0.1" d="M603 166L598.67 158.5L607.33 158.5L603 166Z" fill="#21FA90"/>
<path opacity="0.1" d="M603 192L598.67 184.5L607.33 184.5L603 192Z" fill="#21FA90"/>
<path opacity="0.1" d="M603 218L598.67 210.5L607.33 210.5L603 218Z" fill="#21FA90"/>
<path opacity="0.1" d="M603 244L598.67 236.5L607.33 236.5L603 244Z" fill="#21FA90"/>
<path opacity="0.1" d="M603 270L598.67 262.5L607.33 262.5L603 270Z" fill="#21FA90"/>
<path opacity="0.1" d="M603 296L598.67 288.5L607.33 288.5L603 296Z" fill="#21FA90"/>
<path opacity="0.1" d="M603 322L598.67 314.5L607.33 314.5L603 322Z" fill="#21FA90"/>
<path opacity="0.1" d="M603 348L598.67 340.5L607.33 340.5L603 348Z" fill="#21FA90"/>
<path opacity="0.1" d="M603 374L598.67 366.5L607.33 366.5L603 374Z" fill="#21FA90"/>
<path opacity="0.1" d="M603 400L598.67 392.5L607.33 392.5L603 400Z" fill="#21FA90"/>
<path opacity="0.1" d="M603 426L598.67 418.5L607.33 418.5L603 426Z" fill="#21FA90"/>
<path opacity="0.1" d="M603 452L598.67 444.5L607.33 444.5L603 452Z" fill="#21FA90"/>
<path opacity="0.1" d="M629 10L624.67 2.5L633.33 2.5L629 10Z" fill="#21FA90"/>
<path opacity="0.1" d="M629 36L624.67 28.5L633.33 28.5L629 36Z" fill="#21FA90"/>
<path opacity="0.1" d="M629 62L624.67 54.5L633.33 54.5L629 62Z" fill="#21FA90"/>
<path opacity="0.1" d="M629 88L624.67 80.5L633.33 80.5L629 88Z" fill="#21FA90"/>
<path opacity="0.1" d="M629 114L624.67 106.5L633.33 106.5L629 114Z" fill="#21FA90"/>
<path opacity="0.1" d="M629 140L624.67 132.5L633.33 132.5L629 140Z" fill="#21FA90"/>
<path opacity="0.1" d="M629 166L624.67 158.5L633.33 158.5L629 166Z" fill="#21FA90"/>
<path opacity="0.1" d="M629 192L624.67 184.5L633.33 184.5L629 192Z" fill="#21FA90"/>
<path opacity="0.1" d="M629 218L624.67 210.5L633.33 210.5L629 218Z" fill="#21FA90"/>
<path opacity="0.1" d="M629 244L624.67 236.5L633.33 236.5L629 244Z" fill="#21FA90"/>
<path opacity="0.1" d="M629 270L624.67 262.5L633.33 262.5L629 270Z" fill="#21FA90"/>
<path opacity="0.1" d="M629 296L624.67 288.5L633.33 288.5L629 296Z" fill="#21FA90"/>
<path opacity="0.1" d="M629 322L624.67 314.5L633.33 314.5L629 322Z" fill="#21FA90"/>
<path opacity="0.1" d="M629 348L624.67 340.5L633.33 340.5L629 348Z" fill="#21FA90"/>
<path opacity="0.1" d="M629 374L624.67 366.5L633.33 366.5L629 374Z" fill="#21FA90"/>
<path opacity="0.1" d="M629 400L624.67 392.5L633.33 392.5L629 400Z" fill="#21FA90"/>
<path opacity="0.1" d="M629 426L624.67 418.5L633.33 418.5L629 426Z" fill="#21FA90"/>
<path opacity="0.1" d="M629 452L624.67 444.5L633.33 444.5L629 452Z" fill="#21FA90"/>
<path opacity="0.1" d="M655 10L650.67 2.5L659.33 2.5L655 10Z" fill="#21FA90"/>
<path opacity="0.1" d="M655 36L650.67 28.5L659.33 28.5L655 36Z" fill="#21FA90"/>
<path opacity="0.1" d="M655 62L650.67 54.5L659.33 54.5L655 62Z" fill="#21FA90"/>
<path opacity="0.1" d="M655 88L650.67 80.5L659.33 80.5L655 88Z" fill="#21FA90"/>
<path opacity="0.1" d="M655 114L650.67 106.5L659.33 106.5L655 114Z" fill="#21FA90"/>
<path opacity="0.1" d="M655 140L650.67 132.5L659.33 132.5L655 140Z" fill="#21FA90"/>
<path opacity="0.1" d="M655 166L650.67 158.5L659.33 158.5L655 166Z" fill="#21FA90"/>
<path opacity="0.1" d="M655 192L650.67 184.5L659.33 184.5L655 192Z" fill="#21FA90"/>
<path opacity="0.1" d="M655 218L650.67 210.5L659.33 210.5L655 218Z" fill="#21FA90"/>
<path opacity="0.1" d="M655 244L650.67 236.5L659.33 236.5L655 244Z" fill="#21FA90"/>
<path opacity="0.1" d="M655 270L650.67 262.5L659.33 262.5L655 270Z" fill="#21FA90"/>
<path opacity="0.1" d="M655 296L650.67 288.5L659.33 288.5L655 296Z" fill="#21FA90"/>
<path opacity="0.1" d="M655 322L650.67 314.5L659.33 314.5L655 322Z" fill="#21FA90"/>
<path opacity="0.1" d="M655 348L650.67 340.5L659.33 340.5L655 348Z" fill="#21FA90"/>
<path opacity="0.1" d="M655 374L650.67 366.5L659.33 366.5L655 374Z" fill="#21FA90"/>
<path opacity="0.1" d="M655 400L650.67 392.5L659.33 392.5L655 400Z" fill="#21FA90"/>
<path opacity="0.1" d="M655 426L650.67 418.5L659.33 418.5L655 426Z" fill="#21FA90"/>
<path opacity="0.1" d="M655 452L650.67 444.5L659.33 444.5L655 452Z" fill="#21FA90"/>
<path opacity="0.1" d="M681 10L676.67 2.5L685.33 2.5L681 10Z" fill="#21FA90"/>
<path opacity="0.1" d="M681 36L676.67 28.5L685.33 28.5L681 36Z" fill="#21FA90"/>
<path opacity="0.1" d="M681 62L676.67 54.5L685.33 54.5L681 62Z" fill="#21FA90"/>
<path opacity="0.1" d="M681 88L676.67 80.5L685.33 80.5L681 88Z" fill="#21FA90"/>
<path opacity="0.1" d="M681 114L676.67 106.5L685.33 106.5L681 114Z" fill="#21FA90"/>
<path opacity="0.1" d="M681 140L676.67 132.5L685.33 132.5L681 140Z" fill="#21FA90"/>
<path opacity="0.1" d="M681 166L676.67 158.5L685.33 158.5L681 166Z" fill="#21FA90"/>
<path opacity="0.1" d="M681 192L676.67 184.5L685.33 184.5L681 192Z" fill="#21FA90"/>
<path opacity="0.1" d="M681 218L676.67 210.5L685.33 210.5L681 218Z" fill="#21FA90"/>
<path opacity="0.1" d="M681 244L676.67 236.5L685.33 236.5L681 244Z" fill="#21FA90"/>
<path opacity="0.1" d="M681 270L676.67 262.5L685.33 262.5L681 270Z" fill="#21FA90"/>
<path opacity="0.1" d="M681 296L676.67 288.5L685.33 288.5L681 296Z" fill="#21FA90"/>
<path opacity="0.1" d="M681 322L676.67 314.5L685.33 314.5L681 322Z" fill="#21FA90"/>
<path opacity="0.1" d="M681 348L676.67 340.5L685.33 340.5L681 348Z" fill="#21FA90"/>
<path opacity="0.1" d="M681 374L676.67 366.5L685.33 366.5L681 374Z" fill="#21FA90"/>
<path opacity="0.1" d="M681 400L676.67 392.5L685.33 392.5L681 400Z" fill="#21FA90"/>
<path opacity="0.1" d="M681 426L676.67 418.5L685.33 418.5L681 426Z" fill="#21FA90"/>
<path opacity="0.1" d="M681 452L676.67 444.5L685.33 444.5L681 452Z" fill="#21FA90"/>
<path opacity="0.1" d="M707 10L702.67 2.5L711.33 2.5L707 10Z" fill="#21FA90"/>
<path opacity="0.1" d="M707 36L702.67 28.5L711.33 28.5L707 36Z" fill="#21FA90"/>
<path opacity="0.1" d="M707 62L702.67 54.5L711.33 54.5L707 62Z" fill="#21FA90"/>
<path opacity="0.1" d="M707 88L702.67 80.5L711.33 80.5L707 88Z" fill="#21FA90"/>
<path opacity="0.1" d="M707 114L702.67 106.5L711.33 106.5L707 114Z" fill="#21FA90"/>
<path opacity="0.1" d="M707 140L702.67 132.5L711.33 132.5L707 140Z" fill="#21FA90"/>
<path opacity="0.1" d="M707 166L702.67 158.5L711.33 158.5L707 166Z" fill="#21FA90"/>
<path opacity="0.1" d="M707 192L702.67 184.5L711.33 184.5L707 192Z" fill="#21FA90"/>
<path opacity="0.1" d="M707 218L702.67 210.5L711.33 210.5L707 218Z" fill="#21FA90"/>
<path opacity="0.1" d="M707 244L702.67 236.5L711.33 236.5L707 244Z" fill="#21FA90"/>
<path opacity="0.1" d="M707 270L702.67 262.5L711.33 262.5L707 270Z" fill="#21FA90"/>
<path opacity="0.1" d="M707 296L702.67 288.5L711.33 288.5L707 296Z" fill="#21FA90"/>
<path opacity="0.1" d="M707 322L702.67 314.5L711.33 314.5L707 322Z" fill="#21FA90"/>
<path opacity="0.1" d="M707 348L702.67 340.5L711.33 340.5L707 348Z" fill="#21FA90"/>
<path opacity="0.1" d="M707 374L702.67 366.5L711.33 366.5L707 374Z" fill="#21FA90"/>
<path opacity="0.1" d="M707 400L702.67 392.5L711.33 392.5L707 400Z" fill="#21FA90"/>
<path opacity="0.1" d="M707 426L702.67 418.5L711.33 418.5L707 426Z" fill="#21FA90"/>
<path opacity="0.1" d="M707 452L702.67 444.5L711.33 444.5L707 452Z" fill="#21FA90"/>
<path opacity="0.1" d="M733 10L728.67 2.5L737.33 2.5L733 10Z" fill="#21FA90"/>
<path opacity="0.1" d="M733 36L728.67 28.5L737.33 28.5L733 36Z" fill="#21FA90"/>
<path opacity="0.1" d="M733 62L728.67 54.5L737.33 54.5L733 62Z" fill="#21FA90"/>
<path opacity="0.1" d="M733 88L728.67 80.5L737.33 80.5L733 88Z" fill="#21FA90"/>
<path opacity="0.1" d="M733 114L728.67 106.5L737.33 106.5L733 114Z" fill="#21FA90"/>
<path opacity="0.1" d="M733 140L728.67 132.5L737.33 132.5L733 140Z" fill="#21FA90"/>
<path opacity="0.1" d="M733 166L728.67 158.5L737.33 158.5L733 166Z" fill="#21FA90"/>
<path opacity="0.1" d="M733 192L728.67 184.5L737.33 184.5L733 192Z" fill="#21FA90"/>
<path opacity="0.1" d="M733 218L728.67 210.5L737.33 210.5L733 218Z" fill="#21FA90"/>
<path opacity="0.1" d="M733 244L728.67 236.5L737.33 236.5L733 244Z" fill="#21FA90"/>
<path opacity="0.1" d="M733 270L728.67 262.5L737.33 262.5L733 270Z" fill="#21FA90"/>
<path opacity="0.1" d="M733 296L728.67 288.5L737.33 288.5L733 296Z" fill="#21FA90"/>
<path opacity="0.1" d="M733 322L728.67 314.5L737.33 314.5L733 322Z" fill="#21FA90"/>
<path opacity="0.1" d="M733 348L728.67 340.5L737.33 340.5L733 348Z" fill="#21FA90"/>
<path opacity="0.1" d="M733 374L728.67 366.5L737.33 366.5L733 374Z" fill="#21FA90"/>
<path opacity="0.1" d="M733 400L728.67 392.5L737.33 392.5L733 400Z" fill="#21FA90"/>
<path opacity="0.1" d="M733 426L728.67 418.5L737.33 418.5L733 426Z" fill="#21FA90"/>
<path opacity="0.1" d="M733 452L728.67 444.5L737.33 444.5L733 452Z" fill="#21FA90"/>
<path opacity="0.1" d="M759 10L754.67 2.5L763.33 2.5L759 10Z" fill="#21FA90"/>
<path opacity="0.1" d="M759 36L754.67 28.5L763.33 28.5L759 36Z" fill="#21FA90"/>
<path opacity="0.1" d="M759 62L754.67 54.5L763.33 54.5L759 62Z" fill="#21FA90"/>
<path opacity="0.1" d="M759 88L754.67 80.5L763.33 80.5L759 88Z" fill="#21FA90"/>
<path opacity="0.1" d="M759 114L754.67 106.5L763.33 106.5L759 114Z" fill="#21FA90"/>
<path opacity="0.1" d="M759 140L754.67 132.5L763.33 132.5L759 140Z" fill="#21FA90"/>
<path opacity="0.1" d="M759 166L754.67 158.5L763.33 158.5L759 166Z" fill="#21FA90"/>
<path opacity="0.1" d="M759 192L754.67 184.5L763.33 184.5L759 192Z" fill="#21FA90"/>
<path opacity="0.1" d="M759 218L754.67 210.5L763.33 210.5L759 218Z" fill="#21FA90"/>
<path opacity="0.1" d="M759 244L754.67 236.5L763.33 236.5L759 244Z" fill="#21FA90"/>
<path opacity="0.1" d="M759 270L754.67 262.5L763.33 262.5L759 270Z" fill="#21FA90"/>
<path opacity="0.1" d="M759 296L754.67 288.5L763.33 288.5L759 296Z" fill="#21FA90"/>
<path opacity="0.1" d="M759 322L754.67 314.5L763.33 314.5L759 322Z" fill="#21FA90"/>
<path opacity="0.1" d="M759 348L754.67 340.5L763.33 340.5L759 348Z" fill="#21FA90"/>
<path opacity="0.1" d="M759 374L754.67 366.5L763.33 366.5L759 374Z" fill="#21FA90"/>
<path opacity="0.1" d="M759 400L754.67 392.5L763.33 392.5L759 400Z" fill="#21FA90"/>
<path opacity="0.1" d="M759 426L754.67 418.5L763.33 418.5L759 426Z" fill="#21FA90"/>
<path opacity="0.1" d="M759 452L754.67 444.5L763.33 444.5L759 452Z" fill="#21FA90"/>
<path opacity="0.1" d="M785 10L780.67 2.5L789.33 2.5L785 10Z" fill="#21FA90"/>
<path opacity="0.1" d="M785 36L780.67 28.5L789.33 28.5L785 36Z" fill="#21FA90"/>
<path opacity="0.1" d="M785 62L780.67 54.5L789.33 54.5L785 62Z" fill="#21FA90"/>
<path opacity="0.1" d="M785 88L780.67 80.5L789.33 80.5L785 88Z" fill="#21FA90"/>
<path opacity="0.1" d="M785 114L780.67 106.5L789.33 106.5L785 114Z" fill="#21FA90"/>
<path opacity="0.1" d="M785 140L780.67 132.5L789.33 132.5L785 140Z" fill="#21FA90"/>
<path opacity="0.1" d="M785 166L780.67 158.5L789.33 158.5L785 166Z" fill="#21FA90"/>
<path opacity="0.1" d="M785 192L780.67 184.5L789.33 184.5L785 192Z" fill="#21FA90"/>
<path opacity="0.1" d="M785 218L780.67 210.5L789.33 210.5L785 218Z" fill="#21FA90"/>
<path opacity="0.1" d="M785 244L780.67 236.5L789.33 236.5L785 244Z" fill="#21FA90"/>
<path opacity="0.1" d="M785 270L780.67 262.5L789.33 262.5L785 270Z" fill="#21FA90"/>
<path opacity="0.1" d="M785 296L780.67 288.5L789.33 288.5L785 296Z" fill="#21FA90"/>
<path opacity="0.1" d="M785 322L780.67 314.5L789.33 314.5L785 322Z" fill="#21FA90"/>
<path opacity="0.1" d="M785 348L780.67 340.5L789.33 340.5L785 348Z" fill="#21FA90"/>
<path opacity="0.1" d="M785 374L780.67 366.5L789.33 366.5L785 374Z" fill="#21FA90"/>
<path opacity="0.1" d="M785 400L780.67 392.5L789.33 392.5L785 400Z" fill="#21FA90"/>
<path opacity="0.1" d="M785 426L780.67 418.5L789.33 418.5L785 426Z" fill="#21FA90"/>
<path opacity="0.1" d="M785 452L780.67 444.5L789.33 444.5L785 452Z" fill="#21FA90"/>
<path opacity="0.1" d="M811 10L806.67 2.5L815.33 2.5L811 10Z" fill="#21FA90"/>
<path opacity="0.1" d="M811 36L806.67 28.5L815.33 28.5L811 36Z" fill="#21FA90"/>
<path opacity="0.1" d="M811 62L806.67 54.5L815.33 54.5L811 62Z" fill="#21FA90"/>
<path opacity="0.1" d="M811 88L806.67 80.5L815.33 80.5L811 88Z" fill="#21FA90"/>
<path opacity="0.1" d="M811 114L806.67 106.5L815.33 106.5L811 114Z" fill="#21FA90"/>
<path opacity="0.1" d="M811 140L806.67 132.5L815.33 132.5L811 140Z" fill="#21FA90"/>
<path opacity="0.1" d="M811 166L806.67 158.5L815.33 158.5L811 166Z" fill="#21FA90"/>
<path opacity="0.1" d="M811 192L806.67 184.5L815.33 184.5L811 192Z" fill="#21FA90"/>
<path opacity="0.1" d="M811 218L806.67 210.5L815.33 210.5L811 218Z" fill="#21FA90"/>
<path opacity="0.1" d="M811 244L806.67 236.5L815.33 236.5L811 244Z" fill="#21FA90"/>
<path opacity="0.1" d="M811 270L806.67 262.5L815.33 262.5L811 270Z" fill="#21FA90"/>
<path opacity="0.1" d="M811 296L806.67 288.5L815.33 288.5L811 296Z" fill="#21FA90"/>
<path opacity="0.1" d="M811 322L806.67 314.5L815.33 314.5L811 322Z" fill="#21FA90"/>
<path opacity="0.1" d="M811 348L806.67 340.5L815.33 340.5L811 348Z" fill="#21FA90"/>
<path opacity="0.1" d="M811 374L806.67 366.5L815.33 366.5L811 374Z" fill="#21FA90"/>
<path opacity="0.1" d="M811 400L806.67 392.5L815.33 392.5L811 400Z" fill="#21FA90"/>
<path opacity="0.1" d="M811 426L806.67 418.5L815.33 418.5L811 426Z" fill="#21FA90"/>
<path opacity="0.1" d="M811 452L806.67 444.5L815.33 444.5L811 452Z" fill="#21FA90"/>
<path opacity="0.1" d="M837 10L832.67 2.5L841.33 2.5L837 10Z" fill="#21FA90"/>
<path opacity="0.1" d="M837 36L832.67 28.5L841.33 28.5L837 36Z" fill="#21FA90"/>
<path opacity="0.1" d="M837 62L832.67 54.5L841.33 54.5L837 62Z" fill="#21FA90"/>
<path opacity="0.1" d="M837 88L832.67 80.5L841.33 80.5L837 88Z" fill="#21FA90"/>
<path opacity="0.1" d="M837 114L832.67 106.5L841.33 106.5L837 114Z" fill="#21FA90"/>
<path opacity="0.1" d="M837 140L832.67 132.5L841.33 132.5L837 140Z" fill="#21FA90"/>
<path opacity="0.1" d="M837 166L832.67 158.5L841.33 158.5L837 166Z" fill="#21FA90"/>
<path opacity="0.1" d="M837 192L832.67 184.5L841.33 184.5L837 192Z" fill="#21FA90"/>
<path opacity="0.1" d="M837 218L832.67 210.5L841.33 210.5L837 218Z" fill="#21FA90"/>
<path opacity="0.1" d="M837 244L832.67 236.5L841.33 236.5L837 244Z" fill="#21FA90"/>
<path opacity="0.1" d="M837 270L832.67 262.5L841.33 262.5L837 270Z" fill="#21FA90"/>
<path opacity="0.1" d="M837 296L832.67 288.5L841.33 288.5L837 296Z" fill="#21FA90"/>
<path opacity="0.1" d="M837 322L832.67 314.5L841.33 314.5L837 322Z" fill="#21FA90"/>
<path opacity="0.1" d="M837 348L832.67 340.5L841.33 340.5L837 348Z" fill="#21FA90"/>
<path opacity="0.1" d="M837 374L832.67 366.5L841.33 366.5L837 374Z" fill="#21FA90"/>
<path opacity="0.1" d="M837 400L832.67 392.5L841.33 392.5L837 400Z" fill="#21FA90"/>
<path opacity="0.1" d="M837 426L832.67 418.5L841.33 418.5L837 426Z" fill="#21FA90"/>
<path opacity="0.1" d="M837 452L832.67 444.5L841.33 444.5L837 452Z" fill="#21FA90"/>
<path opacity="0.1" d="M863 10L858.67 2.5L867.33 2.5L863 10Z" fill="#21FA90"/>
<path opacity="0.1" d="M863 36L858.67 28.5L867.33 28.5L863 36Z" fill="#21FA90"/>
<path opacity="0.1" d="M863 62L858.67 54.5L867.33 54.5L863 62Z" fill="#21FA90"/>
<path opacity="0.1" d="M863 88L858.67 80.5L867.33 80.5L863 88Z" fill="#21FA90"/>
<path opacity="0.1" d="M863 114L858.67 106.5L867.33 106.5L863 114Z" fill="#21FA90"/>
<path opacity="0.1" d="M863 140L858.67 132.5L867.33 132.5L863 140Z" fill="#21FA90"/>
<path opacity="0.1" d="M863 166L858.67 158.5L867.33 158.5L863 166Z" fill="#21FA90"/>
<path opacity="0.1" d="M863 192L858.67 184.5L867.33 184.5L863 192Z" fill="#21FA90"/>
<path opacity="0.1" d="M863 218L858.67 210.5L867.33 210.5L863 218Z" fill="#21FA90"/>
<path opacity="0.1" d="M863 244L858.67 236.5L867.33 236.5L863 244Z" fill="#21FA90"/>
<path opacity="0.1" d="M863 270L858.67 262.5L867.33 262.5L863 270Z" fill="#21FA90"/>
<path opacity="0.1" d="M863 296L858.67 288.5L867.33 288.5L863 296Z" fill="#21FA90"/>
<path opacity="0.1" d="M863 322L858.67 314.5L867.33 314.5L863 322Z" fill="#21FA90"/>
<path opacity="0.1" d="M863 348L858.67 340.5L867.33 340.5L863 348Z" fill="#21FA90"/>
<path opacity="0.1" d="M863 374L858.67 366.5L867.33 366.5L863 374Z" fill="#21FA90"/>
<path opacity="0.1" d="M863 400L858.67 392.5L867.33 392.5L863 400Z" fill="#21FA90"/>
<path opacity="0.1" d="M863 426L858.67 418.5L867.33 418.5L863 426Z" fill="#21FA90"/>
<path opacity="0.1" d="M863 452L858.67 444.5L867.33 444.5L863 452Z" fill="#21FA90"/>
</svg>
