<?xml version="1.0" encoding="UTF-8"?>
<svg id="Logo" xmlns="http://www.w3.org/2000/svg" viewBox="0 0 568.18 568.18">
  <defs>
    <style>
      .cls-1 {
        stroke: #00fe84;
      }

      .cls-1, .cls-2 {
        fill: none;
        stroke-linecap: round;
        stroke-linejoin: round;
        stroke-width: 16.34px;
      }

      .cls-2 {
        stroke: #fff;
      }
    </style>
  </defs>
  <g>
    <line class="cls-1" x1="148.26" y1="317.46" x2="148.26" y2="389.92"/>
    <polyline class="cls-1" points="176.75 303.19 234.68 336.63 321.11 286.74 321.11 186.94 234.68 137.04 148.26 186.94 148.26 273.55"/>
    <polyline class="cls-1" points="176.75 334.87 176.75 303.19 205.15 285.91"/>
  </g>
  <polyline class="cls-2" points="466.14 259.75 501.19 280.47 501.19 301.18 466.14 321.89"/>
  <polyline class="cls-2" points="106.23 210.58 66.98 233.24 66.98 334.38 105.4 356.56"/>
  <polyline class="cls-2" points="176.75 376.88 176.75 399.34 234.33 431.14 278.53 405.35 278.17 358.41"/>
  <polyline class="cls-2" points="321.66 332.06 321.66 356.76 363.05 380.98 423.55 344.88 423.55 246.39 364.01 212.25"/>
</svg>