<?xml version="1.0" encoding="UTF-8" standalone="no"?>
<!DOCTYPE svg PUBLIC "-//W3C//DTD SVG 1.1//EN" "http://www.w3.org/Graphics/SVG/1.1/DTD/svg11.dtd">
<svg xmlns="http://www.w3.org/2000/svg" xmlns:xl="http://www.w3.org/1999/xlink" version="1.1" xmlns:dc="http://purl.org/dc/elements/1.1/" viewBox="-.5 -.5 791 91" width="791" height="91">
  <defs/>
  <g id="Canvas_1" stroke-opacity="1" stroke="none" stroke-dasharray="none" fill-opacity="1" fill="none">
    <title>Canvas 1</title>
    <rect fill="white" x="-.5" y="-.5" width="791" height="91"/>
    <g id="Canvas_1_Layer_1">
      <title>Layer 1</title>
      <g id="Group_2">
        <g id="Graphic_26">
          <path d="M 530 45 L 550 45 L 540 45 L 553.63 45" stroke="black" stroke-linecap="butt" stroke-linejoin="round" stroke-width="1"/>
        </g>
        <g id="Graphic_25">
          <path d="M 558.88 45 L 551.88 48.5 L 553.63 45 L 551.88 41.5 Z" fill="black"/>
          <path d="M 558.88 45 L 551.88 48.5 L 553.63 45 L 551.88 41.5 Z" stroke="black" stroke-linecap="butt" stroke-linejoin="round" stroke-width="1"/>
        </g>
        <g id="Graphic_24">
          <path d="M 419 15 L 521 15 C 525.97056 15 530 19.029437 530 24 L 530 66 C 530 70.97056 525.97056 75 521 75 L 419 75 C 414.02944 75 410 70.97056 410 66 L 410 24 C 410 19.029437 414.02944 15 419 15 Z" fill="white"/>
          <path d="M 419 15 L 521 15 C 525.97056 15 530 19.029437 530 24 L 530 66 C 530 70.97056 525.97056 75 521 75 L 419 75 C 414.02944 75 410 70.97056 410 66 L 410 24 C 410 19.029437 414.02944 15 419 15 Z" stroke="black" stroke-linecap="butt" stroke-linejoin="round" stroke-width="1"/>
        </g>
        <g id="Group_22">
          <g id="Graphic_23">
            <title>Text</title>
            <text transform="translate(441.83203 37.259766)" fill="black">
              <tspan font-family="Helvetica" font-size="12" fill="black" x="0" y="11" xml:space="preserve">firstHook()</tspan>
            </text>
          </g>
        </g>
        <g id="Graphic_21">
          <path d="M 380 45 L 400 45 L 390 45 L 403.63 45" stroke="black" stroke-linecap="butt" stroke-linejoin="round" stroke-width="1"/>
        </g>
        <g id="Graphic_20">
          <path d="M 408.88 45 L 401.88 48.5 L 403.63 45 L 401.88 41.5 Z" fill="black"/>
          <path d="M 408.88 45 L 401.88 48.5 L 403.63 45 L 401.88 41.5 Z" stroke="black" stroke-linecap="butt" stroke-linejoin="round" stroke-width="1"/>
        </g>
        <g id="Graphic_19">
          <path d="M 269 15 L 371 15 C 375.97056 15 380 19.029437 380 24 L 380 66 C 380 70.97056 375.97056 75 371 75 L 269 75 C 264.02944 75 260 70.97056 260 66 L 260 24 C 260 19.029437 264.02944 15 269 15 Z" fill="white"/>
          <path d="M 269 15 L 371 15 C 375.97056 15 380 19.029437 380 24 L 380 66 C 380 70.97056 375.97056 75 371 75 L 269 75 C 264.02944 75 260 70.97056 260 66 L 260 24 C 260 19.029437 264.02944 15 269 15 Z" stroke="black" stroke-linecap="butt" stroke-linejoin="round" stroke-width="1"/>
        </g>
        <g id="Group_17">
          <g id="Graphic_18">
            <title>Text</title>
            <text transform="translate(282.1494 37.259766)" fill="black">
              <tspan font-family="Helvetica" font-size="12" fill="black" x="0" y="11" xml:space="preserve">secondHook()</tspan>
            </text>
          </g>
        </g>
        <g id="Graphic_16">
          <path d="M 680 45 L 700 45 L 690 45 L 703.63 45" stroke="black" stroke-linecap="butt" stroke-linejoin="round" stroke-width="1"/>
        </g>
        <g id="Graphic_15">
          <path d="M 708.88 45 L 701.88 48.5 L 703.63 45 L 701.88 41.5 Z" fill="black"/>
          <path d="M 708.88 45 L 701.88 48.5 L 703.63 45 L 701.88 41.5 Z" stroke="black" stroke-linecap="butt" stroke-linejoin="round" stroke-width="1"/>
        </g>
        <g id="Graphic_14">
          <path d="M 569 15 L 671 15 C 675.9706 15 680 19.029437 680 24 L 680 66 C 680 70.97056 675.9706 75 671 75 L 569 75 C 564.02944 75 560 70.97056 560 66 L 560 24 C 560 19.029437 564.02944 15 569 15 Z" fill="white"/>
          <path d="M 569 15 L 671 15 C 675.9706 15 680 19.029437 680 24 L 680 66 C 680 70.97056 675.9706 75 671 75 L 569 75 C 564.02944 75 560 70.97056 560 66 L 560 24 C 560 19.029437 564.02944 15 569 15 Z" stroke="black" stroke-linecap="butt" stroke-linejoin="round" stroke-width="1"/>
        </g>
        <g id="Group_12">
          <g id="Graphic_13">
            <title>Text</title>
            <text transform="translate(590.26465 37.259766)" fill="black">
              <tspan font-family="Helvetica" font-size="12" fill="black" x="0" y="11" xml:space="preserve">entity.find()</tspan>
            </text>
          </g>
        </g>
        <g id="Graphic_11">
          <path d="M 710 11 C 710 -3.67 790 -3.67 790 11 L 790 79 C 790 93.67 710 93.67 710 79 Z" fill="white"/>
          <path d="M 710 11 C 710 -3.67 790 -3.67 790 11 L 790 79 C 790 93.67 710 93.67 710 79 Z" stroke="black" stroke-linecap="butt" stroke-linejoin="round" stroke-width="1"/>
        </g>
        <g id="Graphic_10">
          <path d="M 710 11 C 710 22 790 22 790 11 M 710 16.5 C 710 27.5 790 27.5 790 16.5 M 710 22 C 710 33 790 33 790 22" stroke="black" stroke-linecap="butt" stroke-linejoin="round" stroke-width="1"/>
        </g>
        <g id="Group_8">
          <g id="Graphic_9">
            <title>Text</title>
            <text transform="translate(723.8154 51.259766)" fill="black">
              <tspan font-family="Helvetica" font-size="12" fill="black" x="0" y="11" xml:space="preserve">Database</tspan>
            </text>
          </g>
        </g>
        <g id="Graphic_7">
          <line x1="220" y1="45" x2="253.63" y2="45" stroke="black" stroke-linecap="butt" stroke-linejoin="round" stroke-width="1"/>
        </g>
        <g id="Graphic_6">
          <path d="M 258.88 45 L 251.88 48.5 L 253.63 45 L 251.88 41.5 Z" fill="black"/>
          <path d="M 258.88 45 L 251.88 48.5 L 253.63 45 L 251.88 41.5 Z" stroke="black" stroke-linecap="butt" stroke-linejoin="round" stroke-width="1"/>
        </g>
        <g id="Graphic_5">
          <path d="M 9 15 L 211 15 C 215.97056 15 220 19.029437 220 24 L 220 66 C 220 70.97056 215.97056 75 211 75 L 9 75 C 4.0294373 75 0 70.97056 0 66 L 0 24 C 0 19.029437 4.0294373 15 9 15 Z" fill="white"/>
          <path d="M 9 15 L 211 15 C 215.97056 15 220 19.029437 220 24 L 220 66 C 220 70.97056 215.97056 75 211 75 L 9 75 C 4.0294373 75 0 70.97056 0 66 L 0 24 C 0 19.029437 4.0294373 15 9 15 Z" stroke="black" stroke-linecap="butt" stroke-linejoin="round" stroke-width="1"/>
        </g>
        <g id="Group_3">
          <g id="Graphic_4">
            <title>Text</title>
            <text transform="translate(38.45508 37.259766)" fill="black">
              <tspan font-family="Helvetica" font-size="12" fill="black" x="0" y="11" xml:space="preserve">mapper.entities.page.find()</tspan>
            </text>
          </g>
        </g>
      </g>
    </g>
  </g>
</svg>
