<svg width="383" height="306" viewBox="0 0 383 306" fill="none" xmlns="http://www.w3.org/2000/svg">
<path d="M108.854 224.267H323.497V224.199C331.631 223.82 339.576 221.624 346.748 217.771C353.919 213.918 360.134 208.508 364.935 201.938C369.735 195.367 372.999 187.805 374.487 179.808C375.974 171.811 375.646 163.582 373.528 155.728C371.41 147.874 367.555 140.594 362.247 134.426C356.939 128.257 350.314 123.357 342.859 120.085C335.404 116.814 327.309 115.254 319.171 115.522C311.032 115.79 303.058 117.878 295.834 121.632C291.376 111.352 284.629 102.223 276.107 94.94C267.584 87.6573 257.51 82.4129 246.653 79.606M62.8089 79.606C47.0036 83.6771 33.0019 92.8821 23.007 105.773C13.0121 118.663 7.59128 134.508 7.59757 150.813C7.60386 167.118 13.0369 182.958 23.0417 195.841C33.0466 208.724 47.0554 217.918 62.8638 221.977" stroke="white" stroke-width="14.1463" stroke-linecap="round" stroke-linejoin="round"/>
<path d="M147.719 124.69L119.082 134.743L131.684 161.444" stroke="#21FA90" stroke-width="14.1463" stroke-linecap="round" stroke-linejoin="round"/>
<path d="M119.727 135.216C132.785 142.886 148.015 146.031 163.047 144.161C178.08 142.291 192.072 135.51 202.848 124.875C213.624 114.239 220.58 100.344 222.632 85.3505C224.685 70.3574 221.721 55.1069 214.2 41.971C206.678 28.8352 195.023 18.5504 181.045 12.7164C167.067 6.88249 151.552 5.82641 136.911 9.71246C122.27 13.5985 109.326 22.2088 100.09 34.2042C90.8552 46.1995 85.8471 60.9074 85.8452 76.0401V178.408" stroke="#21FA90" stroke-width="14.1463" stroke-linecap="round" stroke-linejoin="round"/>
<path opacity="0.2" d="M85.8452 286.631V298.589" stroke="#21FA90" stroke-width="14.1463" stroke-linecap="round" stroke-linejoin="round"/>
<path opacity="0.4" d="M85.955 249V267.891" stroke="#21FA90" stroke-width="14.1463" stroke-linecap="round" stroke-linejoin="round"/>
<path opacity="0.7" d="M85.8452 197.861V229.444" stroke="#21FA90" stroke-width="14.1463" stroke-linecap="round" stroke-linejoin="round"/>
</svg>
