<svg width="17" height="17" viewBox="0 0 17 17" fill="none" xmlns="http://www.w3.org/2000/svg">
  <path d="M12.5 2.3689H13.5C14.0523 2.3689 14.5 2.81661 14.5 3.3689V9.3689C14.5 9.92118 14.0523 10.3689 13.5 10.3689H3.5C2.94772 10.3689 2.5 9.92118 2.5 9.3689V3.3689C2.5 2.81661 2.94772 2.3689 3.5 2.3689H4.5" stroke="white" stroke-linecap="round"/>
  <rect x="6.5" y="10.3689" width="4" height="2" stroke="white"/>
  <path d="M4.5 13.3689C4.5 12.8166 4.94772 12.3689 5.5 12.3689H11.5C12.0523 12.3689 12.5 12.8166 12.5 13.3689V14.3689H4.5V13.3689Z" stroke="white"/>
  <g clip-path="url(#clip0_6967_57)">
  <path fill-rule="evenodd" clip-rule="evenodd" d="M9.20444 1.3689C9.29333 1.3689 9.36444 1.44223 9.36444 1.53112V3.33334L10.6333 2.05779C10.6956 1.99556 10.7978 1.99556 10.86 2.05779L11.8156 3.02223C11.8778 3.08445 11.8778 3.18445 11.8178 3.2489H11.8156L10.5511 4.52667H12.3378C12.4267 4.52667 12.4978 4.60001 12.4978 4.6889V6.05112C12.4978 6.14001 12.4267 6.21334 12.3378 6.21334H10.5511L11.8156 7.4889C11.8778 7.55112 11.8778 7.65112 11.8178 7.71556H11.8156L10.86 8.68223C10.7978 8.74445 10.7 8.74445 10.6356 8.68445H10.6333L9.37111 7.40667V9.2089C9.37111 9.29779 9.3 9.37112 9.21111 9.37112H7.86C7.77111 9.37112 7.7 9.29779 7.7 9.2089V8.26445C7.7 7.96445 7.81778 7.67779 8.02667 7.46445L9.75556 5.71334C9.94222 5.52445 9.94222 5.21556 9.75556 5.02667L8.03111 3.2889C7.82 3.07556 7.70222 2.7889 7.70222 2.48667V1.53112C7.70222 1.44223 7.77333 1.3689 7.86222 1.3689H9.20667H9.20444ZM6.36 2.08001L6.36444 2.08445L9.30667 5.03556C9.49556 5.22445 9.49556 5.53112 9.30667 5.72001L6.37111 8.68001C6.30889 8.74223 6.20667 8.74445 6.14444 8.68001L5.18889 7.73556C5.12667 7.67334 5.12444 7.57334 5.18444 7.51112V7.50667L6.46 6.21779H4.66222C4.57333 6.21779 4.5 6.14445 4.5 6.05556V4.69556C4.5 4.60667 4.57111 4.53334 4.66222 4.53334H6.45778L5.18889 3.26667C5.12667 3.20445 5.12667 3.10223 5.18889 3.03779L6.13333 2.08223C6.19556 2.02001 6.29556 2.01779 6.35778 2.07779L6.36 2.08001Z" fill="white"/>
  </g>
  <defs>
  <clipPath id="clip0_6967_57">
  <rect width="8" height="8" fill="white" transform="translate(4.5 1.3689)"/>
  </clipPath>
  </defs>
</svg>
