<svg width="17" height="17" viewBox="0 0 17 17" fill="none" xmlns="http://www.w3.org/2000/svg">
<path d="M3.58282 11.4619L8.66684 3.67578L13.7501 11.4619H3.58282Z" stroke="white" stroke-linecap="round" stroke-linejoin="round"/>
<path d="M3.58282 6.28985V11.5173L8.66684 14.1307L13.7501 11.5173V6.28985L8.66684 3.67578L3.58282 6.28985Z" stroke="white" stroke-linecap="round" stroke-linejoin="round"/>
<path d="M8.66659 4.48263C9.16698 4.48263 9.57262 4.12139 9.57262 3.67577C9.57262 3.23014 9.16698 2.8689 8.66659 2.8689C8.1662 2.8689 7.76056 3.23014 7.76056 3.67577C7.76056 4.12139 8.1662 4.48263 8.66659 4.48263Z" fill="white" stroke="white" stroke-linecap="round" stroke-linejoin="round"/>
<path d="M3.58331 7.07358C4.0837 7.07358 4.48934 6.71233 4.48934 6.26671C4.48934 5.82109 4.0837 5.45984 3.58331 5.45984C3.08292 5.45984 2.67728 5.82109 2.67728 6.26671C2.67728 6.71233 3.08292 7.07358 3.58331 7.07358Z" fill="white" stroke="white" stroke-linecap="round" stroke-linejoin="round"/>
<path d="M13.7499 7.07358C14.2502 7.07358 14.6559 6.71233 14.6559 6.26671C14.6559 5.82109 14.2502 5.45984 13.7499 5.45984C13.2495 5.45984 12.8438 5.82109 12.8438 6.26671C12.8438 6.71233 13.2495 7.07358 13.7499 7.07358Z" fill="white" stroke="white" stroke-linecap="round" stroke-linejoin="round"/>
<path d="M8.6779 14.8593C9.17825 14.854 9.57906 14.4885 9.57312 14.0429C9.56718 13.5973 9.15675 13.2404 8.6564 13.2457C8.15604 13.251 7.75524 13.6165 7.76118 14.0621C7.76712 14.5077 8.17755 14.8646 8.6779 14.8593Z" fill="white" stroke="white" stroke-linecap="round" stroke-linejoin="round"/>
<path d="M13.7607 12.2684C14.261 12.2631 14.6618 11.8976 14.6559 11.452C14.6499 11.0064 14.2395 10.6494 13.7391 10.6547C13.2388 10.66 12.838 11.0255 12.8439 11.4711C12.8499 11.9167 13.2603 12.2736 13.7607 12.2684Z" fill="white" stroke="white" stroke-linecap="round" stroke-linejoin="round"/>
<path d="M3.5941 12.2688C4.09445 12.2636 4.49526 11.898 4.48932 11.4525C4.48338 11.0069 4.07295 10.6499 3.57259 10.6552C3.07224 10.6605 2.67144 11.026 2.67738 11.4716C2.68332 11.9172 3.09375 12.2741 3.5941 12.2688Z" fill="white" stroke="white" stroke-linecap="round" stroke-linejoin="round"/>
</svg>
