<svg width="16" height="17" viewBox="0 0 16 17" fill="none" xmlns="http://www.w3.org/2000/svg">
<path d="M2 8.8689H14" stroke="white" stroke-linejoin="round"/>
<circle cx="8" cy="8.8689" r="6" stroke="white"/>
<path d="M3 4.8689C3.5 5.20223 4.8 5.8689 8 5.8689C11.2 5.8689 12.8333 5.03556 13 4.8689" stroke="white" stroke-linejoin="round"/>
<path d="M8 14.8689C8.66667 14.2689 10 12.7089 10 8.8689C10 5.0289 8.33333 3.0689 8 2.8689" stroke="white" stroke-linejoin="round"/>
<path d="M8 14.8689C7.33333 14.2689 6 12.7089 6 8.8689C6 5.0289 7.66667 3.0689 8 2.8689" stroke="white" stroke-linejoin="round"/>
<path d="M13 12.8689C12.5 12.5356 11.2 11.8689 8 11.8689C4.8 11.8689 3.16667 12.7022 3 12.8689" stroke="white" stroke-linejoin="round"/>
</svg>
