<?xml version="1.0" encoding="utf-8"?>
<!-- Generator: Adobe Illustrator 26.4.1, SVG Export Plug-In . SVG Version: 6.00 Build 0)  -->
<svg version="1.1" id="Layer_1" xmlns="http://www.w3.org/2000/svg" xmlns:xlink="http://www.w3.org/1999/xlink" x="0px" y="0px"
	 viewBox="0 0 3762 874.6" style="enable-background:new 0 0 3762 874.6;" xml:space="preserve">
<style type="text/css">
	.st0{enable-background:new    ;}
	.st1{fill:#21FA90;}
	.st2{fill:none;stroke:#FFFFFF;stroke-width:41.21;stroke-linecap:round;stroke-linejoin:round;}
	.st3{fill:none;stroke:#21FA90;stroke-width:42.48;stroke-linecap:round;stroke-linejoin:round;}
	.st4{fill:none;stroke:#21FA90;stroke-width:41.21;stroke-linecap:round;stroke-linejoin:round;}
	
		.st5{opacity:0.2;fill:none;stroke:#21FA90;stroke-width:41.21;stroke-linecap:round;stroke-linejoin:round;enable-background:new    ;}
	
		.st6{opacity:0.4;fill:none;stroke:#21FA90;stroke-width:41.21;stroke-linecap:round;stroke-linejoin:round;enable-background:new    ;}
	
		.st7{opacity:0.7;fill:none;stroke:#21FA90;stroke-width:41.21;stroke-linecap:round;stroke-linejoin:round;enable-background:new    ;}
</style>
<g>
	<g class="st0">
		<path class="st1" d="M1271.6,602V400.5h87.2c18,0,33.6,2.9,46.6,8.8s23.1,14.2,30.2,25.2c7.1,10.9,10.7,24,10.7,39.2
			c0,15-3.6,27.9-10.7,38.9c-7.1,10.9-17.2,19.3-30.2,25.2c-13.1,5.9-28.6,8.8-46.6,8.8h-61.3l20.7-21V602H1271.6z M1318.2,530.6
			l-20.7-22.2h58.7c14.4,0,25.1-3.1,32.2-9.2s10.7-14.7,10.7-25.6c0-11.1-3.6-19.8-10.7-25.9s-17.8-9.2-32.2-9.2h-58.7l20.7-22.2
			V530.6z"/>
		<path class="st1" d="M1479.2,602V388.4h44.9V602H1479.2z"/>
		<path class="st1" d="M1613.6,604.3c-12.1,0-22.5-2.1-31.1-6.2c-8.6-4.1-15.3-9.7-19.9-16.8s-6.9-15.1-6.9-23.9
			c0-9.2,2.3-17.3,6.8-24.2s11.7-12.3,21.4-16.3c9.8-3.9,22.5-5.9,38.3-5.9h41.2v26.2h-36.3c-10.6,0-17.8,1.7-21.7,5.2
			c-3.9,3.5-5.9,7.8-5.9,13c0,5.8,2.3,10.3,6.8,13.7s10.7,5,18.6,5c7.5,0,14.2-1.8,20.2-5.3c5.9-3.5,10.3-8.8,13-15.7l6.9,20.7
			c-3.3,10-9.2,17.6-17.8,22.7C1638.3,601.7,1627.2,604.3,1613.6,604.3z M1660.8,602v-30.2l-2.9-6.6V511c0-9.6-2.9-17.1-8.8-22.5
			s-14.8-8.1-26.9-8.1c-8.3,0-16.4,1.3-24.3,3.9c-8,2.6-14.7,6.1-20.3,10.5l-16.1-31.4c8.4-5.9,18.6-10.6,30.5-13.8
			c11.9-3.3,24-4.9,36.3-4.9c23.6,0,41.9,5.6,55,16.7c13,11.1,19.6,28.5,19.6,52.1V602H1660.8z"/>
		<path class="st1" d="M1725,485.1v-34.5h107.4v34.5H1725z M1806.7,604.3c-18.2,0-32.4-4.7-42.6-14s-15.3-23.2-15.3-41.6V412.8h44.9
			v135.3c0,6.5,1.7,11.6,5.2,15.1c3.5,3.6,8.2,5.3,14.1,5.3c7.1,0,13.1-1.9,18.1-5.8l12.1,31.7c-4.6,3.3-10.1,5.7-16.6,7.3
			C1820.3,603.4,1813.7,604.3,1806.7,604.3z"/>
	</g>
	<g class="st0">
		<path class="st1" d="M1850.2,485.1v-34.5h107.4v34.5H1850.2z M1874.1,602V443.6c0-17.5,5.2-31.4,15.5-41.9
			c10.4-10.5,25.1-15.7,44.3-15.7c6.5,0,12.8,0.7,18.9,2c6,1.3,11.2,3.5,15.4,6.3l-11.8,32.5c-2.5-1.7-5.3-3.1-8.3-4
			c-3.1-1-6.3-1.4-9.8-1.4c-6.5,0-11.6,1.9-15.1,5.6c-3.6,3.7-5.3,9.4-5.3,16.8v14.4l1.2,19.3V602H1874.1z"/>
	</g>
	<g class="st0">
		<path class="st1" d="M2051.7,604.3c-16.5,0-31.1-3.5-43.9-10.4s-22.8-16.4-30.2-28.4c-7.4-12-11.1-25.7-11.1-41
			c0-15.5,3.7-29.3,11.1-41.3s17.5-21.4,30.2-28.2c12.8-6.8,27.4-10.2,43.9-10.2c16.3,0,30.9,3.4,43.8,10.2
			c12.9,6.8,22.9,16.2,30.2,28.1s10.9,25.7,10.9,41.5c0,15.4-3.6,29-10.9,41c-7.3,12-17.4,21.4-30.2,28.4
			C2082.6,600.8,2068,604.3,2051.7,604.3z M2051.7,567.4c7.5,0,14.2-1.7,20.2-5.2c5.9-3.5,10.7-8.4,14.1-14.8
			c3.5-6.4,5.2-14.1,5.2-22.9c0-9-1.7-16.7-5.2-23s-8.2-11.2-14.1-14.7c-6-3.5-12.7-5.2-20.2-5.2s-14.2,1.7-20.2,5.2
			s-10.7,8.3-14.2,14.7c-3.6,6.3-5.3,14-5.3,23c0,8.8,1.8,16.5,5.3,22.9s8.3,11.4,14.2,14.8C2037.5,565.7,2044.2,567.4,2051.7,567.4
			z"/>
	</g>
	<g class="st0">
		<path class="st1" d="M2166.6,602V447.1h42.9v43.8l-6-12.7c4.6-10.9,12-19.2,22.2-24.9c10.2-5.7,22.5-8.5,37.1-8.5v41.5
			c-1.9-0.2-3.6-0.3-5.2-0.4c-1.5-0.1-3.2-0.1-4.9-0.1c-12.3,0-22.2,3.5-29.8,10.5s-11.4,17.9-11.4,32.7v73H2166.6z"/>
	</g>
	<g class="st0">
		<path class="st1" d="M2487.9,444.8c12.3,0,23.2,2.4,32.7,7.3s17,12.4,22.5,22.5s8.2,23,8.2,38.7V602h-44.9v-81.8
			c0-12.5-2.6-21.7-7.8-27.6s-12.5-8.9-21.9-8.9c-6.5,0-12.4,1.5-17.6,4.5c-5.2,3-9.2,7.4-12.1,13.4c-2.9,6-4.3,13.5-4.3,22.7V602
			h-44.9v-81.8c0-12.5-2.5-21.7-7.6-27.6s-12.3-8.9-21.7-8.9c-6.5,0-12.4,1.5-17.6,4.5c-5.2,3-9.2,7.4-12.1,13.4
			c-2.9,6-4.3,13.5-4.3,22.7V602h-44.9V447.1h42.9v42.3l-8.1-12.4c5.4-10.6,13-18.6,22.9-24c9.9-5.5,21.2-8.2,33.8-8.2
			c14.2,0,26.6,3.6,37.3,10.8c10.7,7.2,17.7,18.2,21.2,33l-15.8-4.3c5.2-12.1,13.5-21.7,24.9-28.8
			C2460,448.3,2473.1,444.8,2487.9,444.8z"/>
		<path class="st1" d="M2639.3,604.3c-12.1,0-22.5-2.1-31.1-6.2c-8.6-4.1-15.3-9.7-19.9-16.8c-4.6-7.1-6.9-15.1-6.9-23.9
			c0-9.2,2.3-17.3,6.8-24.2s11.7-12.3,21.4-16.3c9.8-3.9,22.5-5.9,38.3-5.9h41.2v26.2h-36.3c-10.6,0-17.8,1.7-21.7,5.2
			s-5.9,7.8-5.9,13c0,5.8,2.3,10.3,6.8,13.7s10.7,5,18.6,5c7.5,0,14.2-1.8,20.2-5.3c5.9-3.5,10.3-8.8,13-15.7l6.9,20.7
			c-3.3,10-9.2,17.6-17.8,22.7C2664,601.7,2652.9,604.3,2639.3,604.3z M2686.5,602v-30.2l-2.9-6.6V511c0-9.6-2.9-17.1-8.8-22.5
			c-5.9-5.4-14.8-8.1-26.9-8.1c-8.3,0-16.4,1.3-24.3,3.9c-8,2.6-14.7,6.1-20.3,10.5l-16.1-31.4c8.4-5.9,18.6-10.6,30.5-13.8
			c11.9-3.3,24-4.9,36.3-4.9c23.6,0,41.9,5.6,55,16.7c13,11.1,19.6,28.5,19.6,52.1V602H2686.5z"/>
		<path class="st1" d="M2750.7,485.1v-34.5h107.4v34.5H2750.7z M2832.4,604.3c-18.2,0-32.4-4.7-42.6-14
			c-10.2-9.3-15.3-23.2-15.3-41.6V412.8h44.9v135.3c0,6.5,1.7,11.6,5.2,15.1c3.5,3.6,8.2,5.3,14.1,5.3c7.1,0,13.1-1.9,18.1-5.8
			l12.1,31.7c-4.6,3.3-10.1,5.7-16.6,7.3C2846,603.4,2839.3,604.3,2832.4,604.3z"/>
		<path class="st1" d="M2916.8,425.5c-8.3,0-15-2.4-20.2-7.2c-5.2-4.8-7.8-10.7-7.8-17.8c0-7.1,2.6-13,7.8-17.8s11.9-7.2,20.2-7.2
			c8.2,0,15,2.3,20.2,6.8s7.8,10.3,7.8,17.4c0,7.5-2.5,13.7-7.6,18.6C2932,423,2925.2,425.5,2916.8,425.5z M2894.3,602V447.1h44.9
			V602H2894.3z"/>
	</g>
	<g class="st0">
		<path class="st1" d="M3055.8,604.3c-16.7,0-31.6-3.4-44.6-10.2c-13.1-6.8-23.3-16.3-30.7-28.4c-7.4-12.1-11.1-25.8-11.1-41.2
			c0-15.5,3.7-29.3,11.1-41.3c7.4-12,17.6-21.4,30.7-28.2c13-6.8,27.9-10.2,44.6-10.2c16.3,0,30.5,3.4,42.6,10.2
			c12.1,6.8,21,16.6,26.8,29.2l-34.8,18.7c-4-7.3-9.1-12.7-15.1-16.1c-6-3.5-12.6-5.2-19.7-5.2c-7.7,0-14.6,1.7-20.7,5.2
			c-6.1,3.5-11,8.3-14.5,14.7c-3.6,6.3-5.3,14-5.3,23s1.8,16.7,5.3,23s8.4,11.2,14.5,14.7s13,5.2,20.7,5.2c7.1,0,13.7-1.7,19.7-5
			c6-3.4,11.1-8.8,15.1-16.3l34.8,19c-5.8,12.5-14.7,22.1-26.8,28.9C3086.3,600.9,3072.1,604.3,3055.8,604.3z"/>
	</g>
	<g class="st0">
		<path class="st1" d="M3173.8,604.3c-7.7,0-14.2-2.6-19.7-7.9c-5.5-5.3-8.2-12-8.2-20.3c0-8.2,2.7-14.9,8.2-20s12-7.6,19.7-7.6
			c7.9,0,14.5,2.5,19.9,7.6s8.1,11.8,8.1,20c0,8.3-2.7,15-8.1,20.3C3188.3,601.6,3181.7,604.3,3173.8,604.3z"/>
	</g>
	<g class="st0">
		<path class="st1" d="M3296.8,604.3c-14.6,0-27.7-3.3-39.4-9.9c-11.7-6.6-21-15.9-27.8-27.8c-6.8-11.9-10.2-25.9-10.2-42
			c0-16.3,3.4-30.4,10.2-42.3s16.1-21.1,27.8-27.6s24.9-9.8,39.4-9.8c13,0,24.5,2.9,34.3,8.6c9.8,5.8,17.4,14.5,22.7,26.2
			c5.4,11.7,8.1,26.7,8.1,44.9c0,18-2.6,33-7.8,44.8s-12.6,20.6-22.3,26.3C3322,601.4,3310.4,604.3,3296.8,604.3z M3304.5,567.4
			c7.3,0,13.9-1.7,19.9-5.2c5.9-3.5,10.7-8.4,14.2-14.8c3.5-6.4,5.3-14.1,5.3-22.9c0-9-1.8-16.7-5.3-23c-3.6-6.3-8.3-11.2-14.2-14.7
			c-6-3.5-12.6-5.2-19.9-5.2c-7.5,0-14.2,1.7-20.2,5.2s-10.7,8.3-14.2,14.7c-3.6,6.3-5.3,14-5.3,23c0,8.8,1.8,16.5,5.3,22.9
			s8.3,11.4,14.2,14.8C3290.3,565.7,3297.1,567.4,3304.5,567.4z M3345.1,602v-31.7l0.9-46.1l-2.9-45.8v-90.1h44.9V602H3345.1z"/>
	</g>
	<g class="st0">
		<path class="st1" d="M3506.3,604.3c-17.7,0-33.2-3.5-46.5-10.4s-23.7-16.4-30.9-28.4c-7.3-12-10.9-25.7-10.9-41
			c0-15.5,3.6-29.3,10.8-41.3s17-21.4,29.5-28.2c12.5-6.8,26.6-10.2,42.3-10.2c15.2,0,28.8,3.2,41,9.6s21.8,15.6,28.9,27.6
			c7.1,12,10.7,26.3,10.7,43c0,1.7-0.1,3.7-0.3,5.9s-0.4,4.3-0.6,6.2h-125.8V511h102.2l-17.3,7.8c0-8.1-1.6-15.1-4.9-21
			c-3.3-5.9-7.8-10.6-13.5-14c-5.8-3.4-12.5-5-20.2-5s-14.4,1.7-20.3,5c-5.9,3.4-10.4,8.1-13.7,14.1s-4.9,13.2-4.9,21.4v6.9
			c0,8.4,1.9,15.9,5.6,22.3c3.7,6.4,9,11.3,15.8,14.7s14.8,5,24,5c8.2,0,15.5-1.2,21.7-3.7s11.9-6.2,17.1-11.2l23.9,25.9
			c-7.1,8.1-16,14.2-26.8,18.6C3532.7,602.1,3520.3,604.3,3506.3,604.3z"/>
	</g>
	<g class="st0">
		<path class="st1" d="M3650.3,602l-65.1-154.9h46.3l54.1,133.3h-23l56.1-133.3h43.2L3696.6,602H3650.3z"/>
	</g>
	<g>
		<path class="st2" d="M310,641.2h613.7V641c82.7-3.7,148.5-71.9,148.5-155.5s-69.7-155.7-155.7-155.7c-25.9,0-50.4,6.4-71.9,17.6
			c-25.5-59-77.3-104-140.6-120.3 M178.4,227.2C87.7,250.6,20.6,332.9,20.6,430.9s67.2,180.5,158,203.8"/>
		<path class="st3" d="M421.2,356.3L339.3,385l36,76.4"/>
		<g>
			<path class="st4" d="M341.1,386.4c29.2,17.2,63.2,27.1,99.6,27.1c108.5,0,196.4-87.9,196.4-196.4S549.2,20.6,440.7,20.6
				s-196.4,88-196.4,196.4v293"/>
			<line class="st5" x1="244.3" y1="819.7" x2="244.3" y2="854"/>
			<line class="st6" x1="244.6" y1="712" x2="244.6" y2="766.1"/>
			<line class="st7" x1="244.3" y1="565.7" x2="244.3" y2="656.1"/>
		</g>
	</g>
</g>
</svg>
